<?xml version="1.0" standalone="no"?>
<!DOCTYPE svg PUBLIC "-//W3C//DTD SVG 1.1//EN" "http://www.w3.org/Graphics/SVG/1.1/DTD/svg11.dtd" >
<svg xmlns="http://www.w3.org/2000/svg" xmlns:xlink="http://www.w3.org/1999/xlink" version="1.1">
<metadata>
Created by FontForge 20170910 at Mon Feb 26 09:45:31 2018
 By Jimmy Wärting
Copyright 1991, Atech Software, Carlsbad CA 
</metadata>
<defs>
<font id="Futuris-Bold" horiz-adv-x="626" >
  <font-face 
    font-family="Futuris"
    font-weight="700"
    font-stretch="normal"
    units-per-em="1000"
    panose-1="0 0 0 0 0 0 0 0 0 0"
    ascent="800"
    descent="-200"
    x-height="483"
    cap-height="700"
    bbox="-28 -225 1299 900"
    underline-thickness="50"
    underline-position="-205"
    unicode-range="U+0020-2219"
  />
<missing-glyph 
d="M570 483v-483h-175v-170h-10h-154v170h-175v483h10h175v-363h144v363h10h175v0z" />
    <glyph glyph-name=".notdef" 
d="M570 483v-483h-175v-170h-10h-154v170h-175v483h10h175v-363h144v363h10h175v0z" />
    <glyph glyph-name="glyph1" horiz-adv-x="0" 
 />
    <glyph glyph-name="glyph2" horiz-adv-x="351" 
 />
    <glyph glyph-name="glyph3" unicode=" " horiz-adv-x="361" 
 />
    <glyph glyph-name="glyph4" unicode="!" horiz-adv-x="340" 
d="M63 84q0 43 30.5 72.5t71.5 29.5h10q43 0 72.5 -30.5t29.5 -71.5t-29.5 -71t-72.5 -30l-10 -1q-41 1 -71.5 30t-30.5 72v0zM71 231v469h10h188v-469h-10h-188v0z" />
    <glyph glyph-name="glyph5" unicode="&#x22;" horiz-adv-x="418" 
d="M186 700l-36 -203h-10h-56l-34 203h10h126v0zM368 700l-36 -203h-10h-56l-34 203h10h126v0z" />
    <glyph glyph-name="glyph6" unicode="#" horiz-adv-x="812" 
d="M150 535h124l22 125h10h80l-22 -125h147l22 125h10h80l-22 -125h123l-17 -100h-123l-29 -170h122l-16 -100h-123l-22 -125h-10h-80l22 125h-147l-22 -125h-10h-80l22 125h-123l16 100h124l29 170h-123l16 100v0zM465 265l29 170h-147l-29 -170h147v0z" />
    <glyph glyph-name="glyph7" unicode="$" horiz-adv-x="568" 
d="M331 -17v-99h-10h-91v99l-20 4l-20 4q-42 10 -85.5 33.5t-97.5 67.5l92 149h10l6.5 -6.5l6.5 -6.5q32 -32 72 -58.5t84 -28.5q5 0 11.5 1.5t13.5 4.5q15 6 27.5 20t12.5 40q0 37 -24.5 53.5t-60.5 29.5q-6 1 -11 3t-11 4q-15 5 -32 11t-34 14q-48 22 -87.5 65.5
t-39.5 130.5q0 74 31.5 114.5t69.5 59.5q25 12 48.5 17t37.5 7v110h10h91v-108q8 0 15.5 -1t15.5 -3q41 -7 79.5 -23.5t68.5 -39.5l-70 -147h-10q-28 27 -58.5 44t-63.5 18q-30 -1 -48.5 -16t-18.5 -44q0 -20 10.5 -31t33.5 -21q8 -3 17.5 -6t20.5 -7q133 -41 175 -97.5
t42 -143.5q0 -90 -46 -137.5t-101 -64.5q-16 -6 -31.5 -9t-30.5 -5v-1z" />
    <glyph glyph-name="glyph8" unicode="%" horiz-adv-x="892" 
d="M168 -20l455 740h10h91l-455 -740h-10h-91v0zM477 172q0 78 56 135t136 57h10q80 0 136 -57t56 -135t-56 -134.5t-136 -56.5l-10 -1q-78 1 -135 56.5t-57 135.5v0zM602 172q0 -4 0.5 -8.5t1.5 -9.5q6 -21 23.5 -39t46.5 -20q31 2 51.5 24t20.5 53t-18.5 50t-40.5 25
q-3 0 -6.5 1t-6.5 1q-30 -2 -51 -25t-21 -52v0zM21 528v5.5v5.5q5 68 56.5 124.5t135.5 56.5h10q80 0 136 -57t56 -135t-56 -135t-136 -57h-10q-80 0 -136 57t-56 135v0zM146 528q0 -4 0.5 -8.5t1.5 -9.5q6 -21 23.5 -39t46.5 -20q31 2 51.5 24t20.5 53t-18.5 50t-40.5 25
q-3 0 -6.5 1t-6.5 1q-30 -2 -51 -25t-21 -52v0z" />
    <glyph glyph-name="glyph9" unicode="&#x26;" horiz-adv-x="752" 
d="M423 347l77 -85l94 94h10l99 -104l-98 -92l147 -160h-10h-203l-59 62q-8 -7 -15.5 -13.5t-14.5 -11.5q-38 -29 -78 -41.5t-93 -12.5l-10 -1q-117 1 -175.5 57.5t-58.5 138.5q0 21 5.5 48t24.5 56q18 26 50 51t85 45q-10 12 -18.5 22.5t-15.5 20.5q-14 21 -21 43t-7 52
q0 80 52.5 141t147.5 61h10q97 0 148.5 -55.5t51.5 -138.5q0 -56 -26 -92t-74 -69l-12 -8t-13 -8v0zM385 164l-103 115q-28 -17 -45 -39t-17 -54q0 -6 1 -14t4 -16q6 -15 21 -27.5t45 -13.5q7 0 14 1t14 3q15 5 31 15.5t35 29.5v0zM341 431q5 4 10.5 8.5t10.5 9.5
q16 15 28.5 35t12.5 44q0 27 -12 41.5t-27 19.5q-4 1 -7.5 2t-7.5 1q-3 0 -6 -0.5t-6 -1.5q-16 -6 -29 -22t-13 -47q0 -7 1.5 -15t4.5 -16q6 -16 17 -31t23 -28v0z" />
    <glyph glyph-name="glyph10" unicode="'" horiz-adv-x="236" 
d="M186 700l-36 -203h-10h-56l-34 203h10h126v0z" />
    <glyph glyph-name="glyph11" unicode="(" horiz-adv-x="298" 
d="M284 -165l-98 -59h-10q-91 150 -117.5 271.5t-26.5 218.5t26.5 219t117.5 271h10l98 -59q-73 -130 -96 -238t-23 -193t23 -192.5t96 -237.5v-1z" />
    <glyph glyph-name="glyph12" unicode=")" horiz-adv-x="298" 
d="M14 697l98 59h10q92 -149 118 -271t26 -219t-26 -218.5t-118 -270.5l-10 -1l-98 59q53 96 86 203.5t33 227.5t-33 228t-86 203v0z" />
    <glyph glyph-name="glyph13" unicode="*" horiz-adv-x="491" 
d="M201 735h98v-126l105 60h10l49 -85l-115 -66l115 -66l-49 -85h-10l-105 60v-126h-10h-98v126l-104 -60h-10l-49 85l114 66l-114 66l49 85h10l104 -60v126h10v0z" />
    <glyph glyph-name="glyph14" unicode="+" horiz-adv-x="650" 
d="M370 80h-100v220h-220v100h220v220h10h100v-220h220v-100h-220v-220h-10v0z" />
    <glyph glyph-name="glyph15" unicode="," horiz-adv-x="332" 
d="M14 -140l105 308h10h175l-147 -308h-10h-133v0z" />
    <glyph glyph-name="glyph16" unicode="-" horiz-adv-x="430" 
d="M50 350h340v-154h-10h-340v154h10v0z" />
    <glyph glyph-name="glyph17" unicode="." horiz-adv-x="340" 
d="M63 84q0 43 30.5 72.5t71.5 29.5h10q41 0 71.5 -29.5t30.5 -72.5t-30.5 -72t-71.5 -29l-10 -1q-41 1 -71.5 30t-30.5 72v0z" />
    <glyph glyph-name="glyph18" unicode="/" horiz-adv-x="522" 
d="M21 -210l365 945h10h105l-365 -945h-10h-105v0z" />
    <glyph glyph-name="glyph19" unicode="0" horiz-adv-x="606" 
d="M298 -20q-116 1 -171.5 64t-75.5 139q-13 48 -16 93t-3 74t3 74t16 93q20 76 75.5 139.5t171.5 63.5h10q116 0 171.5 -63.5t75.5 -139.5q13 -48 16 -93t3 -74t-3 -74t-16 -93q-20 -76 -75.5 -139t-171.5 -63l-10 -1v0zM303 127q44 3 60.5 47.5t20.5 97.5q1 20 1.5 40
t0.5 38t-0.5 37.5t-1.5 40.5q-4 53 -20.5 97.5t-60.5 47.5q-44 -3 -60.5 -47.5t-20.5 -97.5q-1 -20 -1.5 -40t-0.5 -38t0.5 -37.5t1.5 -40.5q4 -53 20.5 -97.5t60.5 -47.5v0z" />
    <glyph glyph-name="glyph20" unicode="1" horiz-adv-x="606" 
d="M247 0v539h-107v161h10h288v-700h-10h-181v0z" />
    <glyph glyph-name="glyph21" unicode="2" horiz-adv-x="606" 
d="M556 154v-154h-10h-539l290 338q39 45 57 72t23 50q1 6 1.5 11t0.5 11q0 35 -21 62t-58 29q-6 -1 -16.5 -3.5t-22.5 -9.5q-16 -10 -30 -34.5t-14 -71.5h-10h-175q0 18 3 38t8 40q19 70 77.5 129t178.5 59h10q127 0 191 -70t64 -163q0 -23 -4 -44.5t-12 -42.5
q-21 -50 -68.5 -106t-129.5 -140h206v0z" />
    <glyph glyph-name="glyph22" unicode="3" horiz-adv-x="606" 
d="M217 499h-175q12 91 52.5 137t86.5 64q32 13 62 16.5t51 3.5h10q92 0 165 -46t73 -145q0 -55 -27.5 -93.5t-75.5 -49.5v-3q2 -1 4 -1.5t4 -1.5q44 -15 80.5 -56.5t36.5 -120.5q0 -87 -42 -133t-92 -66q-46 -17 -85.5 -20t-47.5 -3v0v0l-10 -1q-104 1 -158 43t-76 93
q-14 31 -19 60t-6 49h10h175v-4q0 -8 1 -17t4 -19q7 -21 24.5 -38.5t53.5 -19.5q37 1 54.5 18.5t23.5 38.5q3 11 4 21.5t1 18.5q0 41 -23 59t-63 19h-12t-12 -1h-10v120h22q5 0 15.5 1t22.5 7q16 6 29 22.5t13 47.5q0 34 -13.5 49.5t-30.5 20.5q-5 2 -10 3t-10 1
q-28 -1 -49 -21.5t-21 -49.5v-3h-10v0z" />
    <glyph glyph-name="glyph23" unicode="4" horiz-adv-x="606" 
d="M329 0v168h-315v144l252 388h10h231v-385h78v-147h-78v-168h-10h-168v0zM329 315v229l-144 -228l144 -1v0z" />
    <glyph glyph-name="glyph24" unicode="5" horiz-adv-x="606" 
d="M536 546h-259l-16 -89q14 3 31.5 4.5t38.5 1.5h10q108 0 165.5 -62t57.5 -154q0 -107 -79.5 -186.5t-222.5 -79.5l-10 -1q-63 1 -115.5 16t-101.5 46l15 168h10h21q36 -38 66.5 -56t60.5 -23q9 -2 18.5 -3t18.5 -1q58 2 96 32.5t38 91.5q0 55 -42.5 81t-107.5 27
q-4 0 -8 -0.5t-8 -0.5q-24 -2 -48 -9t-51 -20h-10h-33l77 371h10h378v-154v0z" />
    <glyph glyph-name="glyph25" unicode="6" horiz-adv-x="606" 
d="M275 700h207l-168 -241q10 2 21 3.5t24 1.5h10q97 0 153 -66t56 -164q0 -105 -70.5 -179t-201.5 -74l-10 -1q-123 1 -195.5 71t-72.5 183q0 43 7.5 80.5t24.5 74.5q9 19 20 38.5t25 39.5l160 233h10v0zM299 127q44 2 69 32.5t25 72.5q0 41 -25 71.5t-69 32.5
q-45 -2 -69 -32.5t-24 -71.5t24 -72t69 -33v0z" />
    <glyph glyph-name="glyph26" unicode="7" horiz-adv-x="606" 
d="M64 0l264 539h-286v161h10h554l-322 -700h-10h-210v0z" />
    <glyph glyph-name="glyph27" unicode="8" horiz-adv-x="606" 
d="M445 372v-2q11 -3 25.5 -9t28.5 -16q30 -19 54.5 -55t24.5 -98q0 -17 -3 -38t-12 -43q-20 -49 -77 -89.5t-178 -40.5l-10 -1q-121 1 -178 41.5t-77 89.5q-9 22 -12 43t-3 38q0 62 24.5 98t54.5 55q14 10 28.5 16t25.5 9v2q-40 15 -70.5 53t-30.5 102q0 82 60.5 137.5
t177.5 55.5h10q117 0 177.5 -55.5t60.5 -137.5q0 -64 -30.5 -102t-70.5 -53v0zM303 127q40 2 61.5 28.5t21.5 61.5q0 37 -18.5 57t-40.5 27q-6 2 -12 3t-12 1q-32 -1 -57 -24.5t-25 -63.5q0 -34 21.5 -61t60.5 -29v0zM303 431h2.5t2.5 1q24 2 43.5 20t19.5 54q0 33 -15 49.5
t-32 22.5q-6 2 -11 3t-10 1t-11.5 -1.5t-12.5 -4.5q-16 -6 -29.5 -22t-13.5 -48q0 -36 18.5 -53.5t40.5 -20.5q2 0 4 -0.5t4 -0.5v0z" />
    <glyph glyph-name="glyph28" unicode="9" horiz-adv-x="606" 
d="M331 0h-207l168 241q-10 -2 -21 -3.5t-24 -1.5h-10q-97 0 -153 66.5t-56 163.5q0 105 71 179.5t201 74.5h10q123 0 195.5 -70.5t72.5 -183.5q0 -43 -7.5 -80.5t-24.5 -74.5q-9 -19 -20 -38.5t-25 -39.5l-160 -233h-10v0zM307 573q-44 -2 -69 -32.5t-25 -72.5
q0 -41 25 -71.5t69 -32.5q45 2 69 32.5t24 71.5t-24 72t-69 33v0z" />
    <glyph glyph-name="glyph29" unicode=":" horiz-adv-x="340" 
d="M63 84q0 43 30.5 72.5t71.5 29.5h10q41 0 71.5 -29.5t30.5 -72.5t-30.5 -72t-71.5 -29l-10 -1q-41 1 -71.5 30t-30.5 72v0zM63 399q0 41 29.5 71.5t72.5 30.5h10q41 0 71.5 -29.5t30.5 -72.5t-30.5 -72.5t-71.5 -29.5h-10q-41 0 -71.5 29.5t-30.5 72.5v0z" />
    <glyph glyph-name="glyph30" unicode=";" horiz-adv-x="332" 
d="M14 -140l105 308h10h175l-147 -308h-10h-133v0zM90 399q0 43 30.5 72.5t71.5 29.5h10q43 0 72.5 -30.5t29.5 -71.5t-29.5 -71.5t-72.5 -30.5h-10q-41 0 -71.5 29.5t-30.5 72.5v0z" />
    <glyph glyph-name="glyph31" unicode="&#x3c;" horiz-adv-x="510" 
d="M168 350l292 -140v-100h-10l-400 200v80l400 200h10v-100l-292 -140v0z" />
    <glyph glyph-name="glyph32" unicode="=" horiz-adv-x="650" 
d="M50 210v100h10h540v-100h-10h-540v0zM50 390v100h10h540v-100h-10h-540v0z" />
    <glyph glyph-name="glyph33" unicode="&#x3e;" horiz-adv-x="510" 
d="M342 350l-292 140v100h10l400 -200v-80l-400 -200h-10v100l292 140v0z" />
    <glyph glyph-name="glyph34" unicode="?" horiz-adv-x="535" 
d="M157 84q0 41 29.5 71.5t72.5 30.5h10q43 0 72.5 -30.5t29.5 -71.5t-29.5 -71t-72.5 -30l-10 -1q-43 1 -72.5 31t-29.5 71v0zM196 496h-168v8v8q4 78 60.5 143t174.5 65h10q115 0 169.5 -57t62.5 -125q1 -7 1.5 -13.5t0.5 -13.5q0 -82 -42.5 -135.5t-111.5 -55.5v-89h-10
h-168v181h48q7 0 21 1t30 7q20 8 37.5 26.5t17.5 55.5q0 3 -1 13.5t-6 21.5q-5 13 -17.5 24t-36.5 12q-23 -1 -36 -13t-19 -25q-4 -9 -5.5 -17t-1.5 -14v-8h-10v0z" />
    <glyph glyph-name="glyph35" unicode="@" horiz-adv-x="888" 
d="M648 530l-56 -259q-1 -5 -1.5 -9.5t-0.5 -9.5q0 -16 9 -24.5t27 -9.5q8 0 16 1.5t16 3.5q36 9 66 42.5t30 104.5q0 147 -96 220t-219 74q-121 -1 -212.5 -84t-91.5 -230q0 -157 94.5 -237t208.5 -85h5h6q48 1 85.5 14.5t65.5 31.5h10l29 -44q-18 -11 -36 -19.5t-35 -13.5
q-27 -9 -55 -12.5t-59 -3.5l-10 -1q-187 1 -283.5 110t-96.5 260q0 170 110.5 270t259.5 100h10q164 0 249.5 -76t114.5 -167q8 -28 12 -55t4 -52q0 -104 -63.5 -159t-139.5 -59h-5.5h-5.5h-10q-32 0 -52.5 12t-32.5 27q-3 4 -6.5 8.5t-5.5 8.5q-11 -12 -23 -21t-24 -16
q-17 -10 -33.5 -14.5t-31.5 -4.5h-10q-10 0 -20 1t-20 3q-44 10 -80.5 44.5t-36.5 105.5q0 96 68 164.5t154 68.5h10q31 0 48.5 -10.5t27.5 -26.5l6 28h10h100v0zM407 250q33 2 53.5 22t30.5 44q8 16 11 31t3 24v0v1q0 4 -0.5 14t-5.5 21q-4 14 -15.5 25t-34.5 13
q-37 -2 -57.5 -29t-27.5 -60q-3 -9 -4 -19t-1 -19q0 -5 0.5 -11t1.5 -12q3 -16 13 -29.5t33 -15.5v0z" />
    <glyph glyph-name="glyph36" unicode="A" horiz-adv-x="731" 
d="M-7 0l249 700h10h238l248 -700h-10h-210l-38 121h-228l-39 -121h-10h-210v0zM366 522l-75 -247h150l-75 247v0z" />
    <glyph glyph-name="glyph37" unicode="B" horiz-adv-x="688" 
d="M73 700h339q95 0 139 -34t58 -75q7 -19 9.5 -36.5t2.5 -32.5q0 -54 -32.5 -92t-76.5 -54v-2q12 -3 29 -9t35 -17q31 -19 57.5 -55t26.5 -98q0 -6 -0.5 -11.5t-0.5 -11.5q-7 -64 -60 -118t-168 -54h-10h-358v700h10v0zM269 140h80q8 0 21 0.5t26 3.5q22 5 40 20.5t18 49.5
q0 33 -18.5 47.5t-39.5 19.5q-12 2 -23.5 2.5t-19.5 0.5h-84v-144v0zM269 424h72q43 0 62 13.5t25 30.5q2 6 2.5 11.5t0.5 10.5q0 27 -19.5 48.5t-70.5 21.5h-72v-136v0z" />
    <glyph glyph-name="glyph38" unicode="C" horiz-adv-x="624" 
d="M589 32q-21 -14 -42 -23t-42 -15q-27 -8 -53.5 -10.5t-51.5 -2.5l-10 -1q-148 1 -253 98t-105 272q0 183 110 276.5t245 93.5h10q18 0 37 -2t39 -6q30 -6 59.5 -18t56.5 -30v-203h-10q-6 7 -14 15t-18 17q-22 19 -54.5 35t-74.5 17q-82 -2 -128 -61.5t-46 -139.5
q0 -90 51.5 -138.5t122.5 -50.5q53 2 93.5 25t67.5 51h10v-199v0z" />
    <glyph glyph-name="glyph39" unicode="D" horiz-adv-x="721" 
d="M63 0v700h10h256q148 0 222.5 -56.5t104.5 -124.5q24 -53 28.5 -100.5t4.5 -68.5q0 -135 -83 -242.5t-277 -107.5h-10h-256v0zM269 168h12q16 0 38 2t45 10q43 13 78 51t35 119q0 99 -55.5 140.5t-140.5 41.5h-12v-364v0z" />
    <glyph glyph-name="glyph40" unicode="E" horiz-adv-x="535" 
d="M63 0v700h10h420v-168h-224v-98h203v-154h-203v-112h224v-168h-10h-420v0z" />
    <glyph glyph-name="glyph41" unicode="F" horiz-adv-x="521" 
d="M63 0v700h10h420v-168h-224v-105h203v-161h-203v-266h-10h-196v0z" />
    <glyph glyph-name="glyph42" unicode="G" horiz-adv-x="809" 
d="M399 406h376q1 -10 1.5 -23t0.5 -27q0 -30 -3.5 -66t-13.5 -73q-25 -89 -99 -162.5t-234 -73.5l-10 -1q-155 1 -270 92.5t-115 272.5q0 167 99.5 271t271.5 104h10q108 0 193.5 -42t131.5 -128l-173 -81h-10q-19 38 -56 60t-86 23q-70 -1 -122.5 -52.5t-52.5 -150.5
q0 -100 52.5 -156.5t129.5 -58.5q57 2 98 33.5t53 84.5h-182v154h10v0z" />
    <glyph glyph-name="glyph43" unicode="H" horiz-adv-x="766" 
d="M63 0v700h10h196v-252h228v252h10h196v-700h-10h-196v280h-228v-280h-10h-196v0z" />
    <glyph glyph-name="glyph44" unicode="I" horiz-adv-x="332" 
d="M63 0v700h10h196v-700h-10h-196v0z" />
    <glyph glyph-name="glyph45" unicode="J" horiz-adv-x="500" 
d="M0 102l126 101h10q1 -4 2.5 -8t3.5 -8q7 -14 19.5 -25.5t33.5 -13.5q30 2 36.5 23.5t6.5 50.5v478h10h196v-458q0 -22 -2.5 -51.5t-11.5 -61.5q-15 -56 -60.5 -102t-143.5 -46l-10 -1v1v0q-9 0 -48.5 4.5t-85.5 32.5q-22 13 -43 33.5t-39 50.5v0z" />
    <glyph glyph-name="glyph46" unicode="K" horiz-adv-x="710" 
d="M63 0v700h10h196v-280l201 280h10h230l-266 -339l273 -361h-10h-245l-193 286v-286h-10h-196v0z" />
    <glyph glyph-name="glyph47" unicode="L" horiz-adv-x="493" 
d="M63 0v700h10h196v-532h210v-168h-10h-406v0z" />
    <glyph glyph-name="glyph48" unicode="M" horiz-adv-x="880" 
d="M14 0l102 700h10h196l118 -410l118 410h10h196l102 -700h-10h-188l-49 382l-111 -382h-10h-126l-111 382l-49 -382h-10h-188v0z" />
    <glyph glyph-name="glyph49" unicode="N" horiz-adv-x="787" 
d="M63 0v700h10h206l246 -397v397h10h189v-700h-10h-203l-249 404v-404h-10h-189v0z" />
    <glyph glyph-name="glyph50" unicode="O" horiz-adv-x="826" 
d="M408 -20q-184 0 -280 111t-96 259q0 147 94.5 258.5t281.5 111.5h10q187 0 281.5 -111.5t94.5 -258.5q0 -148 -94.5 -258t-281.5 -111l-10 -1v0zM412 148q10 0 21 1.5t22 5.5q48 13 87.5 58.5t39.5 136.5t-40 136.5t-87 58.5q-11 3 -21.5 5t-20.5 2q-11 0 -23 -2t-23 -6
q-46 -14 -84.5 -59.5t-38.5 -134.5t38.5 -134.5t84.5 -59.5q11 -4 22.5 -6t22.5 -2v0z" />
    <glyph glyph-name="glyph51" unicode="P" horiz-adv-x="651" 
d="M63 0v700h10h295q112 0 167.5 -48t74.5 -106q7 -21 10 -41.5t3 -38.5t-3 -38.5t-10 -41.5q-18 -58 -74 -106.5t-168 -48.5h-99v-231h-10h-196v0zM269 546v-161h46q43 0 63 14t27 30q4 11 5 21t1 16t-0.5 12t-1.5 12q-5 21 -25 38.5t-69 17.5h-46v0z" />
    <glyph glyph-name="glyph52" unicode="Q" horiz-adv-x="828" 
d="M807 0l-126 -60h-10l-67 82q-40 -20 -85 -30.5t-101 -10.5l-10 -1q-157 1 -266.5 96.5t-109.5 273.5t109.5 274t266.5 96h10q187 0 281.5 -111.5t94.5 -258.5q0 -16 -4.5 -62.5t-26.5 -98.5q-9 -21 -21.5 -41.5t-29.5 -39.5l95 -108v0zM514 306l48 -57q10 20 15 44.5
t5 56.5q0 91 -40 136.5t-87 58.5q-11 3 -21.5 5t-20.5 2q-11 0 -23 -2t-23 -6q-46 -14 -84.5 -59.5t-38.5 -134.5t38.5 -134.5t84.5 -59.5q11 -4 23 -6t23 -2q19 1 32.5 4t22.5 7l-84 93l120 54h10v0z" />
    <glyph glyph-name="glyph53" unicode="R" horiz-adv-x="654" 
d="M63 0v700h10h290q10 0 45 -2.5t74 -18.5q46 -19 84.5 -62t38.5 -127q0 -92 -43.5 -139.5t-95.5 -67.5q-2 -1 -4 -1.5t-4 -1.5l196 -280h-10h-237l-138 215v-215h-10h-196v0zM269 385h38q50 0 70 23t22 50v4v4v4.5v5.5q-3 26 -23 48t-69 22h-38v-161v0z" />
    <glyph glyph-name="glyph54" unicode="S" horiz-adv-x="570" 
d="M511 651l-70 -147h-10q-5 4 -10 8.5t-10 8.5q-25 19 -50 31.5t-53 13.5q-27 -1 -41 -11t-20 -23q-4 -7 -5 -14t-1 -12q0 -22 15 -34.5t34 -18.5q9 -3 18 -5t16 -4q18 -4 41.5 -10.5t48.5 -18.5q48 -22 88 -68.5t40 -136.5q0 -121 -79.5 -175t-183.5 -54l-10 -1
q-28 1 -53 5t-50 12q-37 12 -75.5 35t-83.5 60l93 149h10q5 -5 10 -9.5t10 -9.5q28 -24 62.5 -45t70.5 -27q4 -1 8 -1.5t8 -0.5q28 1 41 11t18 22q3 7 4 14t1 12q0 39 -27 55t-67 27q-2 1 -5 1.5t-6 1.5q-16 4 -34.5 10t-37.5 14q-46 21 -85 64.5t-39 128.5q0 89 63.5 150
t182.5 61h10q28 0 86 -10.5t122 -54.5q1 -1 2.5 -2t2.5 -2v0z" />
    <glyph glyph-name="glyph55" unicode="T" horiz-adv-x="528" 
d="M161 0v532h-154v168h10h504v-168h-154v-532h-10h-196v0z" />
    <glyph glyph-name="glyph56" unicode="U" horiz-adv-x="738" 
d="M66 700h196v-413q0 -11 1.5 -27.5t6.5 -34.5q9 -28 31 -52t68 -25q47 1 69 25t30 52q5 18 6.5 34.5t1.5 27.5v413h10h196v-417q0 -157 -85.5 -229.5t-222.5 -72.5l-10 -1q-136 1 -222 73.5t-86 229.5v417h10v0z" />
    <glyph glyph-name="glyph57" unicode="V" horiz-adv-x="728" 
d="M270 0l-277 700h10h231l140 -446l137 446h10h214l-266 -700h-10h-189v0z" />
    <glyph glyph-name="W" unicode="W" horiz-adv-x="1102" 
d="M551 429l-110 -429h-10h-192l-246 700h10h214l119 -409l105 409h10h210l105 -409l119 409h10h214l-246 -700h-10h-192l-110 429v0z" />
    <glyph glyph-name="glyph59" unicode="X" horiz-adv-x="723" 
d="M362 223l-135 -223h-10h-224l256 368l-231 332h10h235l99 -180l99 180h10h222l-219 -322l256 -378h-10h-231l-127 223v0z" />
    <glyph glyph-name="glyph60" unicode="Y" horiz-adv-x="676" 
d="M235 0v272l-242 428h10h231l114 -236l111 236h10h214l-242 -428v-272h-10h-196v0z" />
    <glyph glyph-name="glyph61" unicode="Z" horiz-adv-x="619" 
d="M-7 0l322 532h-266v168h10h567l-315 -532h287v-168h-10h-595v0z" />
    <glyph glyph-name="glyph62" unicode="[" horiz-adv-x="325" 
d="M301 -210h-245v945h10h245v-84h-105v-777h105v-84h-10v0z" />
    <glyph glyph-name="glyph63" unicode="\" horiz-adv-x="522" 
d="M491 -210h-105l-365 945h10h105l365 -945h-10v0z" />
    <glyph glyph-name="glyph64" unicode="]" horiz-adv-x="325" 
d="M24 735h245v-945h-10h-245v84h105v777h-105v84h10v0z" />
    <glyph glyph-name="glyph65" unicode="^" horiz-adv-x="590" 
d="M295 640l-115 -140h-10h-130l156 200h10h188l156 -200h-10h-130l-115 140v0z" />
    <glyph glyph-name="glyph66" unicode="_" horiz-adv-x="510" 
d="M10 -110h500v-100h-10h-500v100h10v0z" />
    <glyph glyph-name="glyph67" unicode="`" horiz-adv-x="370" 
d="M-18 700h223l109 -161h-10h-132l-200 161h10v0z" />
    <glyph glyph-name="glyph68" unicode="a" horiz-adv-x="647" 
d="M413 436v47h10h168v-483h-10h-168v45q-26 -28 -63 -45t-85 -17l-10 -1q-109 1 -167 79t-58 181q0 12 1 25t3 26q11 78 63.5 143t157.5 65h10q41 0 77.5 -13t70.5 -52v0zM320 126q44 2 72 32.5t28 83.5q0 52 -28 83t-72 32q-48 -2 -72 -34t-27 -70v-5.5v-5.5q0 -44 24 -79
t75 -37v0z" />
    <glyph glyph-name="glyph69" unicode="b" horiz-adv-x="648" 
d="M234 46v-46h-10h-168v735h10h175v-291q4 4 8.5 8t8.5 8q28 22 57.5 31.5t67.5 9.5h10q104 0 164.5 -73t60.5 -186q0 -103 -59 -181t-166 -78l-10 -1q-17 1 -34 3.5t-35 8.5q-21 6 -41 19t-39 33v0zM327 126q43 2 71.5 32.5t28.5 83.5q0 52 -28 83t-72 32
q-43 -2 -64.5 -24.5t-29.5 -49.5q-3 -11 -4.5 -21.5t-1.5 -19.5t1.5 -19.5t4.5 -20.5q7 -28 29 -51t65 -25v0z" />
    <glyph glyph-name="glyph70" unicode="c" horiz-adv-x="469" 
d="M439 172v-153q-3 -1 -14.5 -6.5t-30.5 -11.5q-21 -6 -48.5 -12t-59.5 -6l-10 -1q-123 1 -184.5 79.5t-61.5 180.5q0 106 63.5 182.5t182.5 76.5h10q18 0 34.5 -2t33.5 -5q20 -5 41 -12.5t44 -18.5v-152h-10q-24 23 -52.5 36t-57.5 14q-50 -2 -74 -37.5t-24 -82.5
q0 -49 27 -82t78 -35q20 1 46 10.5t57 37.5h10v0z" />
    <glyph glyph-name="glyph71" unicode="d" horiz-adv-x="648" 
d="M407 444v291h10h175v-735h-10h-168v46l-8.5 -8.5l-9.5 -9.5q-20 -17 -52 -31t-78 -14l-10 -1q-91 1 -158.5 68t-67.5 192q0 113 60.5 186t165.5 73h10q43 0 76.5 -12.5t64.5 -44.5v0zM321 126q43 2 71.5 32.5t28.5 83.5q0 52 -28 83t-72 32q-43 -2 -64.5 -24.5
t-29.5 -49.5q-3 -11 -4.5 -21.5t-1.5 -19.5t1.5 -19.5t4.5 -20.5q7 -28 29 -51t65 -25v0z" />
    <glyph glyph-name="glyph72" unicode="e" horiz-adv-x="602" 
d="M568 147q-20 -59 -55.5 -92.5t-73.5 -49.5q-39 -15 -75 -18.5t-56 -3.5l-10 -1q-109 1 -188.5 66t-79.5 194q0 112 69.5 185.5t196.5 73.5h10q118 0 175 -56t77 -123q8 -28 11 -55t3 -50v-7.5v-6.5h-368v-5q0 -6 0.5 -12t1.5 -12q6 -32 29 -59t68 -28q34 2 57 17t30 43
h10h168v0zM208 298h186q-2 36 -24.5 66t-68.5 32q-41 -2 -66 -30.5t-27 -67.5v0z" />
    <glyph glyph-name="glyph73" unicode="f" horiz-adv-x="367" 
d="M70 0v357h-63v126h63v95q0 10 2 33t13 48q15 32 53.5 59.5t117.5 27.5h10q11 0 26 -1.5t30 -3.5q10 -1 19.5 -2.5t18.5 -3.5v-128h-10q-5 2 -10.5 4.5t-11.5 3.5q-6 2 -12 3.5t-11 1.5q-21 -2 -31.5 -14t-14.5 -26q-3 -10 -3.5 -19t-0.5 -15v-63h105v-126h-105v-357h-10
h-175v0z" />
    <glyph glyph-name="glyph74" unicode="g" horiz-adv-x="655" 
d="M599 483v-469q0 -101 -66.5 -169t-201.5 -68l-10 -1q-121 1 -186.5 53t-77.5 133l10 -1h189q1 -27 22.5 -42t48.5 -16h7.5t6.5 1q30 3 55 24t25 86v29q-34 -27 -65.5 -35t-63.5 -8h-10q-108 0 -180 69.5t-72 191.5q0 117 69 178.5t157 61.5h10q16 0 35.5 -2t38.5 -7
q22 -6 43 -17t38 -29v37h10h168v0zM324 140q40 2 72 29.5t32 82.5q0 47 -22 71t-49 32q-8 3 -16.5 4.5t-16.5 1.5t-18.5 -2t-20.5 -7q-24 -9 -44 -32.5t-20 -67.5q0 -54 29.5 -81t65.5 -30q2 -1 4 -1h4v0z" />
    <glyph glyph-name="glyph75" unicode="h" horiz-adv-x="619" 
d="M56 0v735h10h175v-296q26 29 63.5 45.5t83.5 16.5h10q80 0 116 -41t47 -90q6 -24 7.5 -47t1.5 -41v-282h-10h-175v266q0 7 -0.5 18t-2.5 22q-4 18 -16 33.5t-38 17.5q-38 -2 -62.5 -34t-24.5 -85v-238h-10h-175v0z" />
    <glyph glyph-name="glyph76" unicode="i" horiz-adv-x="298" 
d="M67 483h175v-483h-10h-175v483h10v0zM53 623q0 38 27 64.5t64 26.5h10q38 0 64.5 -26t26.5 -65q0 -37 -26 -64t-65 -27h-10q-35 0 -57 20t-29 44q-3 7 -4 14t-1 13v0z" />
    <glyph glyph-name="glyph77" unicode="j" horiz-adv-x="298" 
d="M67 483h175v-693h-10h-175v693h10v0zM53 623q0 38 27 64.5t64 26.5h10q38 0 64.5 -26t26.5 -65q0 -37 -26 -64t-65 -27h-10q-35 0 -57 20t-29 44q-3 7 -4 14t-1 13v0z" />
    <glyph glyph-name="glyph78" unicode="k" horiz-adv-x="636" 
d="M56 0v735h10h175v-426l154 174h10h217l-220 -227l245 -256h-10h-228l-168 189v-189h-10h-175v0z" />
    <glyph glyph-name="glyph79" unicode="l" horiz-adv-x="297" 
d="M56 0v735h10h175v-735h-10h-175v0z" />
    <glyph glyph-name="glyph80" unicode="m" horiz-adv-x="906" 
d="M241 442q30 29 66 44t76 15h10h3.5h3.5q39 -1 75 -16t59 -51q28 33 62.5 50t84.5 17h10q76 0 112 -37.5t48 -82.5q3 -14 4.5 -27.5t1.5 -26.5v-327h-10h-175v282q0 6 -0.5 15t-3.5 20q-4 14 -14.5 26t-31.5 14q-2 0 -4 -0.5t-4 -0.5q-24 -5 -44.5 -27.5t-20.5 -69.5v-259
h-10h-175v282q0 6 -0.5 15t-3.5 20q-4 14 -14.5 26t-31.5 14q-2 0 -4 -0.5t-4 -0.5q-24 -5 -44.5 -27.5t-20.5 -69.5v-259h-10h-175v483h10h175v-41v0z" />
    <glyph glyph-name="glyph81" unicode="n" horiz-adv-x="619" 
d="M241 439q26 29 63.5 45.5t83.5 16.5h10q80 0 116 -41t47 -90q6 -24 7.5 -47t1.5 -41v-282h-10h-175v266q0 7 -0.5 18t-2.5 22q-4 18 -16 33.5t-38 17.5q-38 -2 -62.5 -34t-24.5 -85v-238h-10h-175v483h10h175v-44v0z" />
    <glyph glyph-name="glyph82" unicode="o" horiz-adv-x="648" 
d="M319 -18q-144 1 -216.5 75.5t-72.5 184.5q0 107 71.5 183t217.5 76h10q146 0 217.5 -76t71.5 -183t-71.5 -183t-217.5 -76l-10 -1v0zM324 108q41 1 62 22t30 46q8 22 9.5 40.5t1.5 25.5q0 56 -26 93.5t-77 39.5q-52 -2 -77.5 -39.5t-25.5 -93.5q0 -7 1.5 -25.5t9.5 -40.5
q9 -24 30 -45t62 -23v0z" />
    <glyph glyph-name="glyph83" unicode="p" horiz-adv-x="648" 
d="M234 483v-47q31 34 66 49.5t83 15.5h10q104 0 164.5 -73t60.5 -186q0 -103 -59 -181t-166 -78l-10 -1q-40 1 -75 13.5t-67 43.5v-249h-10h-175v693h10h168v0zM327 126q43 2 71.5 32.5t28.5 83.5q0 52 -28 83t-72 32q-43 -2 -64.5 -24.5t-29.5 -49.5q-3 -11 -4.5 -21.5
t-1.5 -19.5t1.5 -19.5t4.5 -20.5q7 -28 29 -51t65 -25v0z" />
    <glyph glyph-name="glyph84" unicode="q" horiz-adv-x="648" 
d="M582 -210h-175v248q-26 -26 -61.5 -40.5t-79.5 -14.5l-10 -1q-91 1 -158.5 68t-67.5 192q0 113 60.5 186t165.5 73h10q47 0 82.5 -15t65.5 -49v46h10h168v-693h-10v0zM321 126q43 2 71.5 32.5t28.5 83.5q0 52 -28 83t-72 32q-43 -2 -64.5 -24.5t-29.5 -49.5
q-3 -11 -4.5 -21.5t-1.5 -19.5t1.5 -19.5t4.5 -20.5q7 -28 29 -51t65 -25v0z" />
    <glyph glyph-name="glyph85" unicode="r" horiz-adv-x="423" 
d="M234 433q14 17 30.5 29t33.5 19q16 7 32.5 10t30.5 3h10q4 0 9.5 -0.5t11.5 -0.5q2 -1 4 -1h4q5 -1 9.5 -1.5t6.5 -0.5v-154h-10q-3 2 -6 3t-7 2q-6 2 -12 2.5t-14 0.5q-49 -1 -75 -22.5t-37 -47.5q-11 -23 -12.5 -43t-1.5 -25v-206h-10h-175v483h10h168v-50v0z" />
    <glyph glyph-name="glyph86" unicode="s" horiz-adv-x="476" 
d="M21 30l49 121h10q6 -4 13.5 -8t16.5 -9q20 -10 45.5 -18.5t53.5 -9.5q18 1 28 6.5t14 11.5q3 5 4 9t1 7q0 16 -11 24t-24 12q-5 1 -10.5 2t-10.5 2q-72 11 -117.5 42t-45.5 109q0 10 1 21t4 22q11 48 54.5 87.5t138.5 39.5h10q41 0 89.5 -9t99.5 -33l-55 -112h-10
q-3 2 -5.5 3.5t-4.5 3.5q-26 16 -51 23.5t-45 8.5q-21 -1 -31 -8t-13 -15q-3 -5 -3.5 -10t-0.5 -8v-4v-4q2 -11 15.5 -21t57.5 -15q12 -1 30 -4t37 -10q32 -13 59 -43t27 -90q0 -65 -46 -119t-168 -54l-10 -1q-61 1 -108 12.5t-88 37.5v0z" />
    <glyph glyph-name="glyph87" unicode="t" horiz-adv-x="360" 
d="M70 0v357h-63v126h63v133h10h175v-133h98v-126h-98v-357h-10h-175v0z" />
    <glyph glyph-name="glyph88" unicode="u" horiz-adv-x="612" 
d="M59 483h175v-264q0 -8 0.5 -18.5t3.5 -21.5q5 -19 19.5 -35.5t48.5 -17.5q34 1 48.5 17.5t19.5 35.5q3 11 3.5 21.5t0.5 18.5v264h10h175v-260q0 -20 -2.5 -48t-13.5 -57q-19 -51 -71 -93t-165 -42l-10 -1q-112 1 -164 42.5t-71 92.5q-11 30 -14 58.5t-3 47.5v260h10v0z
" />
    <glyph glyph-name="glyph89" unicode="v" horiz-adv-x="548" 
d="M213 0l-224 483h10h189l100 -246l83 246h10h178l-199 -483h-10h-137v0z" />
    <glyph glyph-name="glyph90" unicode="w" horiz-adv-x="794" 
d="M397 237l-77 -237h-10h-125l-196 483h10h172l86 -244l75 244h10h120l75 -244l86 244h10h172l-196 -483h-10h-125l-77 237v0z" />
    <glyph glyph-name="glyph91" unicode="x" horiz-adv-x="612" 
d="M-7 0l212 258l-177 225h10h214l72 -121l74 121h10h204l-182 -227l189 -256h-10h-203l-93 150l-98 -150h-10h-212v0z" />
    <glyph glyph-name="glyph92" unicode="y" horiz-adv-x="618" 
d="M-1 483h203l128 -248l108 248h10h181l-350 -693h-10h-189l147 280l-238 413h10v0z" />
    <glyph glyph-name="glyph93" unicode="z" horiz-adv-x="528" 
d="M38 483h483l-248 -357h227v-126h-10h-490l245 357h-217v126h10v0z" />
    <glyph glyph-name="glyph94" unicode="{" horiz-adv-x="493" 
d="M100 196v100q7 1 15.5 2.5t17.5 5.5q23 10 42 38.5t19 88.5q0 35 -0.5 45t-1.5 15q-1 4 -1.5 13.5t-0.5 42.5q0 78 35 113.5t77 46.5q18 5 35 7t32 2h10h7.5h6.5v-80q-6 -1 -12.5 -2.5t-12.5 -3.5q-23 -8 -42 -29t-19 -60q0 -13 0.5 -26t1.5 -26q1 -7 1.5 -13t0.5 -13
q2 -22 2.5 -43.5t0.5 -43.5q0 -11 -2 -24.5t-8 -27.5q-9 -21 -32 -41.5t-69 -32.5v-8q79 -25 95 -57t16 -67q0 -22 -0.5 -44.5t-2.5 -44.5q-1 -19 -2.5 -39t-1.5 -40q0 -6 1.5 -18.5t8.5 -26.5q8 -16 25.5 -29.5t50.5 -18.5v-81h-10q-4 1 -8 1h-9q-11 0 -22.5 1t-23.5 3
q-49 9 -89.5 44.5t-40.5 120.5q0 14 0.5 28.5t1.5 27.5q0 8 0.5 15t0.5 15q1 7 1 14.5v14.5q0 11 -1.5 27t-6.5 34q-8 26 -27.5 48.5t-58.5 25.5v0z" />
    <glyph glyph-name="glyph95" unicode="|" horiz-adv-x="210" 
d="M50 -224v1053h10h100v-1053h-10h-100v0z" />
    <glyph glyph-name="glyph96" unicode="}" horiz-adv-x="493" 
d="M393 296v-100q-7 -1 -15.5 -2.5t-17.5 -5.5q-23 -10 -42 -38.5t-19 -88.5q0 -35 0.5 -45t1.5 -15q1 -3 1.5 -12.5t0.5 -42.5q0 -77 -34.5 -113t-76.5 -48q-17 -5 -34 -7t-31 -2l-10 -1q-2 1 -4.5 1h-4.5q-2 1 -4 1h-4v79q6 2 12.5 3.5t12.5 3.5q23 8 42 29t19 60
q0 13 -0.5 26t-1.5 25q-1 7 -1 13.5t-1 12.5q-1 22 -2 43.5t-1 43.5q0 11 2 24.5t8 27.5q9 21 32 41.5t69 32.5v8q-79 26 -95 58t-16 66q0 23 1 45l2 44q2 20 3 40t1 40q0 6 -1.5 18.5t-8.5 26.5q-8 16 -25.5 29.5t-50.5 18.5v80h4.5t5.5 1h4.5h5.5h10q11 0 22 -1t22 -3
q49 -9 89 -45.5t40 -120.5q0 -14 -0.5 -28.5t-1.5 -28.5q0 -7 -0.5 -14.5t-0.5 -14.5q-1 -8 -1 -15v-15q0 -11 1.5 -27t6.5 -34q8 -26 27.5 -48.5t58.5 -25.5v0z" />
    <glyph glyph-name="glyph97" unicode="~" horiz-adv-x="610" 
d="M50 290v100q18 19 41 31.5t47 16.5q5 1 11 1.5t11 0.5h10q25 0 52 -8t58 -19q60 -22 98.5 -36.5t66.5 -16.5q22 1 48 10.5t57 39.5h10v-100q-18 -19 -41 -31.5t-47 -16.5q-5 -1 -11 -1.5t-11 -0.5h-10q-34 0 -76.5 15.5t-103.5 37.5q-31 11 -54 18.5t-42 8.5
q-21 -1 -46.5 -10.5t-57.5 -39.5h-10v0z" />
    <glyph glyph-name="uni007F" horiz-adv-x="10" 
 />
    <glyph glyph-name="F" horiz-adv-x="786" 
d="M605 700v-161h-238v-156q8 6 16.5 11t16.5 10q33 19 66 28t68 9h10q17 0 37 -2.5t41 -8.5q51 -15 93.5 -61t42.5 -145q0 -116 -55 -164.5t-121 -58.5l-28 -2t-28 -1l-10 -1q-14 1 -27.5 1.5t-25.5 1.5v126h10q1 0 2.5 -0.5t2.5 -0.5h2.5h2.5h4t4 1q23 2 42 17.5t19 52.5
q0 35 -23.5 55.5t-58.5 21.5q-8 0 -16.5 -2t-16.5 -5q-20 -7 -38 -18.5t-32 -25.5v-222h-10h-196v539h-154v161h10h588v0z" />
    <glyph glyph-name="F" unicode="&#x402;" horiz-adv-x="786" 
d="M605 700v-161h-238v-156q8 6 16.5 11t16.5 10q33 19 66 28t68 9h10q17 0 37 -2.5t41 -8.5q51 -15 93.5 -61t42.5 -145q0 -116 -55 -164.5t-121 -58.5l-28 -2t-28 -1l-10 -1q-14 1 -27.5 1.5t-25.5 1.5v126h10q1 0 2.5 -0.5t2.5 -0.5h2.5h2.5h4t4 1q23 2 42 17.5t19 52.5
q0 35 -23.5 55.5t-58.5 21.5q-8 0 -16.5 -2t-16.5 -5q-20 -7 -38 -18.5t-32 -25.5v-222h-10h-196v539h-154v161h10h588v0z" />
    <glyph glyph-name="uni0081" horiz-adv-x="507" 
d="M63 0v700h10h420v-168h-224v-532h-10h-196v0z" />
    <glyph glyph-name="uni0081" unicode="&#x403;" horiz-adv-x="507" 
d="M63 0v700h10h420v-168h-224v-532h-10h-196v0z" />
    <glyph glyph-name="D" horiz-adv-x="710" 
d="M63 0v700h10h196v-280l201 280h10h230l-266 -339l273 -361h-10h-245l-193 286v-286h-10h-196v0z" />
    <glyph glyph-name="D" unicode="&#x40c;" horiz-adv-x="710" 
d="M63 0v700h10h196v-280l201 280h10h230l-266 -339l273 -361h-10h-245l-193 286v-286h-10h-196v0z" />
    <glyph glyph-name="N" horiz-adv-x="787" 
d="M161 0v539h-154v161h10h588v-161h-238v-156q38 27 83.5 46t94.5 19h10q15 0 32 -2t35 -7q44 -14 80 -59t36 -149v-231h-10h-196v195q0 51 -19 67.5t-47 17.5q-21 -1 -46.5 -14t-52.5 -44v-222h-10h-196v0z" />
    <glyph glyph-name="N" unicode="&#x40b;" horiz-adv-x="787" 
d="M161 0v539h-154v161h10h588v-161h-238v-156q38 27 83.5 46t94.5 19h10q15 0 32 -2t35 -7q44 -14 80 -59t36 -149v-231h-10h-196v195q0 51 -19 67.5t-47 17.5q-21 -1 -46.5 -14t-52.5 -44v-222h-10h-196v0z" />
    <glyph glyph-name="bullet" horiz-adv-x="760" 
d="M697 700v-700h-228v-160h-10h-168v160h-228v700h10h196v-532h222v532h10h196v0z" />
    <glyph glyph-name="bullet" unicode="&#x40f;" horiz-adv-x="760" 
d="M697 700v-700h-228v-160h-10h-168v160h-228v700h10h196v-532h222v532h10h196v0z" />
    <glyph glyph-name="guilsinglleft" horiz-adv-x="651" 
d="M56 0v567h-84v98h84v70h10h175v-70h210v-98h-210v-126q12 14 26 24t28 16q31 15 58 17.5t36 2.5h10q107 0 160 -71t53 -170q0 -110 -48 -201.5t-105 -159.5q-13 -14 -25.5 -27.5t-24.5 -25.5l-10 -1l-110 86q64 74 101 151.5t37 166.5q0 6 -0.5 12.5t-0.5 12.5
q-5 37 -24.5 68t-64.5 33q-46 -2 -70 -39.5t-26 -81.5v-5v-4v-245h-10h-175v0z" />
    <glyph glyph-name="guilsinglleft" unicode="&#x452;" horiz-adv-x="651" 
d="M56 0v567h-84v98h84v70h10h175v-70h210v-98h-210v-126q12 14 26 24t28 16q31 15 58 17.5t36 2.5h10q107 0 160 -71t53 -170q0 -110 -48 -201.5t-105 -159.5q-13 -14 -25.5 -27.5t-24.5 -25.5l-10 -1l-110 86q64 74 101 151.5t37 166.5q0 6 -0.5 12.5t-0.5 12.5
q-5 37 -24.5 68t-64.5 33q-46 -2 -70 -39.5t-26 -81.5v-5v-4v-245h-10h-175v0z" />
    <glyph glyph-name="O" horiz-adv-x="608" 
d="M56 0v483h10h175v-184l136 184h10h214l-199 -227l217 -256h-10h-221l-147 200v-200h-10h-175v0z" />
    <glyph glyph-name="O" unicode="&#x45c;" horiz-adv-x="608" 
d="M56 0v483h10h175v-184l136 184h10h214l-199 -227l217 -256h-10h-221l-147 200v-200h-10h-175v0z" />
    <glyph glyph-name="tilde" horiz-adv-x="619" 
d="M56 0v567h-84v98h84v70h10h175v-70h210v-98h-210v-128q26 29 63.5 45.5t83.5 16.5h10q80 0 116 -41t47 -90q6 -24 7.5 -47t1.5 -41v-282h-10h-175v266q0 7 -0.5 18t-2.5 22q-4 18 -16 33.5t-38 17.5q-38 -2 -62.5 -34t-24.5 -85v-238h-10h-175v0z" />
    <glyph glyph-name="tilde" unicode="&#x45b;" horiz-adv-x="619" 
d="M56 0v567h-84v98h84v70h10h175v-70h210v-98h-210v-128q26 29 63.5 45.5t83.5 16.5h10q80 0 116 -41t47 -90q6 -24 7.5 -47t1.5 -41v-282h-10h-175v266q0 7 -0.5 18t-2.5 22q-4 18 -16 33.5t-38 17.5q-38 -2 -62.5 -34t-24.5 -85v-238h-10h-175v0z" />
    <glyph glyph-name="uni00A0" unicode="&#xa0;" horiz-adv-x="376" 
 />
    <glyph glyph-name="Z" unicode="&#xa1;" horiz-adv-x="829" 
d="M231 0l95 193l-263 507h10h231l131 -282l108 282h10h213l-315 -700h-10h-210v0zM218 858l114 42h10q6 -23 18 -35t26 -17q9 -4 18 -5.5t16 -1.5t16 1.5t18 5.5q14 5 26 17t18 35h10l114 -42q-26 -60 -80.5 -86t-116.5 -26h-10q-69 0 -122 29.5t-75 82.5v0z" />
    <glyph glyph-name="Z" unicode="&#x40e;" horiz-adv-x="829" 
d="M231 0l95 193l-263 507h10h231l131 -282l108 282h10h213l-315 -700h-10h-210v0zM218 858l114 42h10q6 -23 18 -35t26 -17q9 -4 18 -5.5t16 -1.5t16 1.5t18 5.5q14 5 26 17t18 35h10l114 -42q-26 -60 -80.5 -86t-116.5 -26h-10q-69 0 -122 29.5t-75 82.5v0z" />
    <glyph glyph-name="cent" unicode="&#xa2;" horiz-adv-x="618" 
d="M-1 483h203l128 -248l108 248h10h181l-350 -693h-10h-189l147 280l-238 413h10v0zM116 658l114 42h10q7 -23 19.5 -35.5t26.5 -17.5q9 -3 18 -4.5t16 -1.5t16 1.5t18 5.5q14 5 26 17t18 35h10l114 -42q-24 -55 -74 -81.5t-105 -29.5q-4 -1 -8.5 -1h-9.5h-10h-4.5h-5.5
q-58 2 -111 28t-78 84v0z" />
    <glyph glyph-name="cent" unicode="&#x45e;" horiz-adv-x="618" 
d="M-1 483h203l128 -248l108 248h10h181l-350 -693h-10h-189l147 280l-238 413h10v0zM116 658l114 42h10q7 -23 19.5 -35.5t26.5 -17.5q9 -3 18 -4.5t16 -1.5t16 1.5t18 5.5q14 5 26 17t18 35h10l114 -42q-24 -55 -74 -81.5t-105 -29.5q-4 -1 -8.5 -1h-9.5h-10h-4.5h-5.5
q-58 2 -111 28t-78 84v0z" />
    <glyph glyph-name="endash" unicode="&#xa3;" horiz-adv-x="500" 
d="M0 102l126 101h10q1 -4 2.5 -8t3.5 -8q7 -14 19.5 -25.5t33.5 -13.5q30 2 36.5 23.5t6.5 50.5v478h10h196v-458q0 -22 -2.5 -51.5t-11.5 -61.5q-15 -56 -60.5 -102t-143.5 -46l-10 -1v1v0q-9 0 -48.5 4.5t-85.5 32.5q-22 13 -43 33.5t-39 50.5v0z" />
    <glyph glyph-name="endash" unicode="&#x408;" horiz-adv-x="500" 
d="M0 102l126 101h10q1 -4 2.5 -8t3.5 -8q7 -14 19.5 -25.5t33.5 -13.5q30 2 36.5 23.5t6.5 50.5v478h10h196v-458q0 -22 -2.5 -51.5t-11.5 -61.5q-15 -56 -60.5 -102t-143.5 -46l-10 -1v1v0q-9 0 -48.5 4.5t-85.5 32.5q-22 13 -43 33.5t-39 50.5v0z" />
    <glyph glyph-name="currency" unicode="&#xa4;" horiz-adv-x="702" 
d="M50 124l73 74q-19 29 -33 66t-14 86q0 48 14 86t33 66l-73 74l70 70h10l70 -69q28 18 64 30.5t82 12.5h10q47 0 82.5 -12.5t63.5 -30.5l70 69h10l70 -70l-73 -74q20 -28 33.5 -66t13.5 -86q0 -49 -13.5 -86t-33.5 -66l73 -74l-70 -70h-10l-70 69q-28 -18 -63.5 -30.5
t-82.5 -12.5h-10q-46 0 -82 12.5t-64 30.5l-70 -69h-10l-70 70v0zM166 350q0 -79 54.5 -133.5t130.5 -56.5q78 2 131.5 58t53.5 132q0 77 -53.5 132.5t-131.5 57.5q-76 -2 -130.5 -56.5t-54.5 -133.5v0z" />
    <glyph glyph-name="emdash" unicode="&#xa5;" horiz-adv-x="521" 
d="M63 0v700h280v140h10h154v-308h-238v-532h-10h-196v0z" />
    <glyph glyph-name="emdash" unicode="&#x490;" horiz-adv-x="521" 
d="M63 0v700h280v140h10h154v-308h-238v-532h-10h-196v0z" />
    <glyph glyph-name="circumflex" unicode="&#xa6;" horiz-adv-x="340" 
d="M63 84q0 43 30.5 72.5t71.5 29.5h10q41 0 71.5 -29.5t30.5 -72.5t-30.5 -72t-71.5 -29l-10 -1q-41 1 -71.5 30t-30.5 72v0zM63 399q0 41 29.5 71.5t72.5 30.5h10q41 0 71.5 -29.5t30.5 -72.5t-30.5 -72.5t-71.5 -29.5h-10q-41 0 -71.5 29.5t-30.5 72.5v0z" />
    <glyph glyph-name="scaron" unicode="&#xa7;" horiz-adv-x="606" 
d="M65 6h176q0 -1 -0.5 -3t-0.5 -3v-3v-3v-4v-4q3 -21 18 -38.5t46 -18.5q26 1 39.5 17.5t13.5 39.5q0 35 -29.5 46t-72.5 17l-42 7t-49 13q-48 16 -88.5 55t-40.5 117q0 51 26 94.5t76 62.5l-13.5 9t-15.5 12q-18 16 -33 42t-15 64q0 9 1 18.5t3 19.5q13 59 68 108t163 49
h10q122 0 175 -53t66 -116q2 -9 3.5 -19t2.5 -19h-10h-168v11q0 4 -1 11t-5 14q-6 11 -19 20.5t-38 10.5q-24 -1 -41 -16.5t-17 -44.5q0 -25 18.5 -37t40.5 -17q9 -1 17.5 -2.5t15.5 -2.5q17 -2 45.5 -7.5t58.5 -18.5q46 -19 84 -60.5t38 -119.5v-8t-1 -8q-4 -40 -27 -76.5
t-63 -57.5q26 -12 40 -30t21 -37q5 -15 6.5 -29t1.5 -26q0 -70 -64.5 -124t-187.5 -54l-10 -1q-108 1 -162 52.5t-66 113.5q-2 10 -3 19.5t-1 17.5h10v0zM303 174q33 2 56 24.5t23 59.5q0 38 -22.5 60.5t-56.5 23.5q-33 -1 -56 -23.5t-23 -60.5q0 -37 22.5 -59.5t56.5 -24.5
v0z" />
    <glyph glyph-name="H" unicode="&#xa8;" horiz-adv-x="535" 
d="M63 0v700h10h420v-168h-224v-98h203v-154h-203v-112h224v-168h-10h-420v0zM90 823q0 34 23 55.5t54 21.5h10q32 0 54.5 -22t22.5 -55q0 -31 -21.5 -54t-55.5 -23h-10q-32 0 -54.5 23t-22.5 54v0zM300 823q0 34 23 55.5t54 21.5h10q32 0 54.5 -22t22.5 -55
q0 -31 -21.5 -54t-55.5 -23h-10q-31 0 -54 22.5t-23 54.5v0z" />
    <glyph glyph-name="H" unicode="&#x401;" horiz-adv-x="535" 
d="M63 0v700h10h420v-168h-224v-98h203v-154h-203v-112h224v-168h-10h-420v0zM90 823q0 34 23 55.5t54 21.5h10q32 0 54.5 -22t22.5 -55q0 -31 -21.5 -54t-55.5 -23h-10q-32 0 -54.5 23t-22.5 54v0zM300 823q0 34 23 55.5t54 21.5h10q32 0 54.5 -22t22.5 -55
q0 -31 -21.5 -54t-55.5 -23h-10q-31 0 -54 22.5t-23 54.5v0z" />
    <glyph glyph-name="I" unicode="&#xa9;" horiz-adv-x="850" 
d="M50 350q0 150 107.5 260t262.5 110h10q152 0 261 -107.5t109 -262.5q0 -154 -109 -261.5t-261 -107.5l-10 -1q-155 1 -262.5 110.5t-107.5 259.5v0zM122 350q0 -128 89.5 -217t213.5 -91q128 2 215.5 93t87.5 215q0 125 -87.5 215.5t-215.5 92.5q-124 -2 -213.5 -91
t-89.5 -217v0zM575 161q-12 -6 -22.5 -11t-20.5 -9q-21 -8 -42 -11.5t-49 -3.5h-10q-100 0 -159.5 66.5t-59.5 157.5v6.5v7.5q5 78 62 143.5t157 65.5h10q38 0 71.5 -9.5t62.5 -27.5v-117h-10q-3 3 -7 5.5t-8 4.5q-15 11 -35.5 19.5t-44.5 9.5q-5 0 -10 -0.5t-10 -1.5
q-33 -6 -61 -30.5t-28 -75.5q0 -50 28.5 -78.5t79.5 -30.5q16 1 32 4.5t32 11.5q8 4 16 9t16 11h10v-116v0z" />
    <glyph glyph-name="J" unicode="&#xaa;" horiz-adv-x="630" 
d="M462 427v-140h-231q5 -62 49 -106.5t122 -46.5q49 1 94 18.5t82 50.5h10v-175q-21 -12 -43 -20t-44 -14q-29 -7 -57 -10t-53 -3l-10 -1q-141 1 -245 100t-104 280q0 164 102 262t246 98h10q23 0 48 -3t51 -9t51 -15.5t48 -21.5v-172h-10q-33 30 -72.5 46.5t-80.5 19.5
q-4 1 -7.5 1h-6.5q-68 -1 -115.5 -40.5t-57.5 -98.5h224v0z" />
    <glyph glyph-name="J" unicode="&#x404;" horiz-adv-x="630" 
d="M462 427v-140h-231q5 -62 49 -106.5t122 -46.5q49 1 94 18.5t82 50.5h10v-175q-21 -12 -43 -20t-44 -14q-29 -7 -57 -10t-53 -3l-10 -1q-141 1 -245 100t-104 280q0 164 102 262t246 98h10q23 0 48 -3t51 -9t51 -15.5t48 -21.5v-172h-10q-33 30 -72.5 46.5t-80.5 19.5
q-4 1 -7.5 1h-6.5q-68 -1 -115.5 -40.5t-57.5 -98.5h224v0z" />
    <glyph glyph-name="ampersand" unicode="&#xab;" horiz-adv-x="549" 
d="M198 21l-170 231l170 231h10l96 -59l-126 -172l126 -171l-96 -60h-10v0zM415 21l-170 231l170 231h10l96 -59l-126 -172l126 -171l-96 -60h-10v0z" />
    <glyph glyph-name="quotesingle" unicode="&#xac;" horiz-adv-x="650" 
d="M50 350v100h10h540v-250h-10h-120v150h-420v0z" />
    <glyph glyph-name="daggerdbl" unicode="&#xad;" horiz-adv-x="430" 
d="M50 350h340v-154h-10h-340v154h10v0z" />
    <glyph glyph-name="dagger" unicode="&#xae;" horiz-adv-x="856" 
d="M53 350q0 155 110 262.5t260 107.5h10q150 0 260 -107.5t110 -262.5t-110 -262t-260 -107l-10 -1q-150 1 -260 108t-110 262v0zM125 350q0 -128 89.5 -217t213.5 -91q128 2 215.5 93t87.5 215q0 128 -89 217t-214 91q-124 -2 -213.5 -91t-89.5 -217v0zM250 143v413h10
h194q68 0 106 -37t38 -93q0 -46 -19 -70t-42 -34q-7 -3 -13.5 -5.5t-12.5 -3.5l101 -170h-10h-135l-81 154v-154h-10h-126v0zM386 388h41h3.5t2.5 1q10 1 17.5 9.5t7.5 25.5v4v4q-2 10 -9.5 18t-31.5 8h-31v-70v0z" />
    <glyph glyph-name="macron" unicode="&#xaf;" horiz-adv-x="398" 
d="M96 0v700h10h196v-700h-10h-196v0zM20 823q0 34 23 55.5t54 21.5h10q32 0 54.5 -22t22.5 -55q0 -31 -21.5 -54t-55.5 -23h-10q-32 0 -54.5 23t-22.5 54v0zM214 823q0 34 23 55.5t54 21.5h10q33 0 55 -22.5t22 -54.5q0 -31 -21.5 -54t-55.5 -23h-10q-32 0 -54.5 23
t-22.5 54v0z" />
    <glyph glyph-name="macron" unicode="&#x407;" horiz-adv-x="398" 
d="M96 0v700h10h196v-700h-10h-196v0zM20 823q0 34 23 55.5t54 21.5h10q32 0 54.5 -22t22.5 -55q0 -31 -21.5 -54t-55.5 -23h-10q-32 0 -54.5 23t-22.5 54v0zM214 823q0 34 23 55.5t54 21.5h10q33 0 55 -22.5t22 -54.5q0 -31 -21.5 -54t-55.5 -23h-10q-32 0 -54.5 23
t-22.5 54v0z" />
    <glyph glyph-name="degree" unicode="&#xb0;" horiz-adv-x="346" 
d="M56 609q0 47 33 79.5t79 32.5h10q46 0 79 -32.5t33 -79.5t-33 -79.5t-79 -32.5h-10q-46 0 -79 32.5t-33 79.5v0zM115 609q0 -4 0.5 -8t2.5 -9q4 -16 18 -30t37 -16q26 2 42 20.5t16 42.5q0 26 -16.5 43.5t-41.5 19.5q-24 -2 -38 -17t-18 -32q-1 -4 -1.5 -7.5t-0.5 -6.5v0
z" />
    <glyph glyph-name="at" unicode="&#xb1;" horiz-adv-x="650" 
d="M50 50v100h10h540v-100h-10h-540v0zM370 210h-100v180h-220v100h220v190h10h100v-190h220v-100h-220v-180h-10v0z" />
    <glyph glyph-name="P" unicode="&#xb2;" horiz-adv-x="332" 
d="M63 0v700h10h196v-700h-10h-196v0z" />
    <glyph glyph-name="P" unicode="&#x406;" horiz-adv-x="332" 
d="M63 0v700h10h196v-700h-10h-196v0z" />
    <glyph glyph-name="S" unicode="&#xb3;" horiz-adv-x="298" 
d="M67 483h175v-483h-10h-175v483h10v0zM53 623q0 38 27 64.5t64 26.5h10q38 0 64.5 -26t26.5 -65q0 -37 -26 -64t-65 -27h-10q-35 0 -57 20t-29 44q-3 7 -4 14t-1 13v0z" />
    <glyph glyph-name="S" unicode="&#x456;" horiz-adv-x="298" 
d="M67 483h175v-483h-10h-175v483h10v0zM53 623q0 38 27 64.5t64 26.5h10q38 0 64.5 -26t26.5 -65q0 -37 -26 -64t-65 -27h-10q-35 0 -57 20t-29 44q-3 7 -4 14t-1 13v0z" />
    <glyph glyph-name="T" unicode="&#xb4;" horiz-adv-x="409" 
d="M56 0v483h231v127h10h105v-253h-161v-357h-10h-175v0z" />
    <glyph glyph-name="T" unicode="&#x491;" horiz-adv-x="409" 
d="M56 0v483h231v127h10h105v-253h-161v-357h-10h-175v0z" />
    <glyph glyph-name="U" unicode="&#xb5;" 
d="M570 483v-483h-10h-175v35q-6 -10 -12 -17t-13 -12q-12 -9 -23.5 -12t-18.5 -3l-10 -1q-7 1 -18.5 4t-23.5 12q-7 5 -13 12t-12 17v-245h-10h-175v693h10h175v-230v-1.5v-1.5q1 -42 17.5 -77.5t54.5 -38.5q38 3 54.5 38.5t17.5 77.5v1.5v1.5v230h10h175v0z" />
    <glyph glyph-name="V" unicode="&#xb6;" horiz-adv-x="592" 
d="M203 -210v595q-77 2 -121 48.5t-52 101.5q-1 6 -1.5 12.5t-0.5 12.5v7t1 7q4 59 48.5 108.5t125.5 52.5h10h126v-945h-10h-126v0zM413 -210v945h10h126v-945h-10h-126v0z" />
    <glyph glyph-name="quoteleft" unicode="&#xb8;" horiz-adv-x="602" 
d="M568 147q-20 -59 -55.5 -92.5t-73.5 -49.5q-39 -15 -75 -18.5t-56 -3.5l-10 -1q-109 1 -188.5 66t-79.5 194q0 112 69.5 185.5t196.5 73.5h10q118 0 175 -56t77 -123q8 -28 11 -55t3 -50v-7.5v-6.5h-368v-5q0 -6 0.5 -12t1.5 -12q6 -32 29 -59t68 -28q34 2 57 17t30 43
h10h168v0zM208 298h186q-2 36 -24.5 66t-68.5 32q-41 -2 -66 -30.5t-27 -67.5v0zM114 616q0 33 22.5 55t54.5 22h10q32 0 54.5 -21.5t22.5 -55.5q0 -32 -22.5 -54.5t-54.5 -22.5h-10q-34 0 -55.5 23t-21.5 54v0zM324 616q0 33 22.5 55t54.5 22h10q32 0 54.5 -21.5
t22.5 -55.5q0 -32 -22.5 -54.5t-54.5 -22.5h-10q-34 0 -55.5 23t-21.5 54v0z" />
    <glyph glyph-name="quoteleft" unicode="&#x451;" horiz-adv-x="602" 
d="M568 147q-20 -59 -55.5 -92.5t-73.5 -49.5q-39 -15 -75 -18.5t-56 -3.5l-10 -1q-109 1 -188.5 66t-79.5 194q0 112 69.5 185.5t196.5 73.5h10q118 0 175 -56t77 -123q8 -28 11 -55t3 -50v-7.5v-6.5h-368v-5q0 -6 0.5 -12t1.5 -12q6 -32 29 -59t68 -28q34 2 57 17t30 43
h10h168v0zM208 298h186q-2 36 -24.5 66t-68.5 32q-41 -2 -66 -30.5t-27 -67.5v0zM114 616q0 33 22.5 55t54.5 22h10q32 0 54.5 -21.5t22.5 -55.5q0 -32 -22.5 -54.5t-54.5 -22.5h-10q-34 0 -55.5 23t-21.5 54v0zM324 616q0 33 22.5 55t54.5 22h10q32 0 54.5 -21.5
t22.5 -55.5q0 -32 -22.5 -54.5t-54.5 -22.5h-10q-34 0 -55.5 23t-21.5 54v0z" />
    <glyph glyph-name="one" unicode="&#xb9;" horiz-adv-x="1207" 
d="M63 0v700h10h206l246 -397v397h10h189v-700h-10h-203l-249 404v-404h-10h-189v0zM812 0v91h10h322v-91h-10h-322v0zM973 147q-77 0 -136.5 50t-59.5 146t59.5 146t136.5 50h10q77 0 136.5 -49.5t59.5 -146.5t-59.5 -146.5t-136.5 -49.5h-10v0zM978 259q28 2 43 26t15 58
q0 41 -17.5 61.5t-40.5 22.5q-23 -2 -40.5 -22.5t-17.5 -61.5q0 -34 15 -58t43 -26v0z" />
    <glyph glyph-name="one" unicode="&#x2116;" horiz-adv-x="1207" 
d="M63 0v700h10h206l246 -397v397h10h189v-700h-10h-203l-249 404v-404h-10h-189v0zM812 0v91h10h322v-91h-10h-322v0zM973 147q-77 0 -136.5 50t-59.5 146t59.5 146t136.5 50h10q77 0 136.5 -49.5t59.5 -146.5t-59.5 -146.5t-136.5 -49.5h-10v0zM978 259q28 2 43 26t15 58
q0 41 -17.5 61.5t-40.5 22.5q-23 -2 -40.5 -22.5t-17.5 -61.5q0 -34 15 -58t43 -26v0z" />
    <glyph glyph-name="G" unicode="&#xba;" horiz-adv-x="502" 
d="M460 7q-5 -2 -13.5 -4.5t-19.5 -6.5q-20 -5 -49 -10t-68 -5l-10 -1q-131 1 -200.5 80t-69.5 185q0 104 71.5 180t198.5 76h10q29 0 62.5 -5.5t67.5 -18.5q4 -2 8.5 -3.5t8.5 -3.5v-133h-10q-5 4 -11 8.5t-13 8.5q-19 13 -45 23.5t-58 11.5q-44 -1 -79 -24.5t-43 -66.5
h199v-105h-203q5 -38 36 -64.5t87 -28.5q27 1 61 10t72 37h10v-140v0z" />
    <glyph glyph-name="G" unicode="&#x454;" horiz-adv-x="502" 
d="M460 7q-5 -2 -13.5 -4.5t-19.5 -6.5q-20 -5 -49 -10t-68 -5l-10 -1q-131 1 -200.5 80t-69.5 185q0 104 71.5 180t198.5 76h10q29 0 62.5 -5.5t67.5 -18.5q4 -2 8.5 -3.5t8.5 -3.5v-133h-10q-5 4 -11 8.5t-13 8.5q-19 13 -45 23.5t-58 11.5q-44 -1 -79 -24.5t-43 -66.5
h199v-105h-203q5 -38 36 -64.5t87 -28.5q27 1 61 10t72 37h10v-140v0z" />
    <glyph glyph-name="bracketleft" unicode="&#xbb;" horiz-adv-x="549" 
d="M133 483l171 -231l-171 -231h-10l-95 60l126 171l-126 172l95 59h10v0zM350 483l171 -231l-171 -231h-10l-95 60l126 171l-126 172l95 59h10v0z" />
    <glyph glyph-name="w" unicode="&#xbc;" horiz-adv-x="298" 
d="M67 483h175v-693h-10h-175v693h10v0zM53 623q0 38 27 64.5t64 26.5h10q38 0 64.5 -26t26.5 -65q0 -37 -26 -64t-65 -27h-10q-35 0 -57 20t-29 44q-3 7 -4 14t-1 13v0z" />
    <glyph glyph-name="w" unicode="&#x458;" horiz-adv-x="298" 
d="M67 483h175v-693h-10h-175v693h10v0zM53 623q0 38 27 64.5t64 26.5h10q38 0 64.5 -26t26.5 -65q0 -37 -26 -64t-65 -27h-10q-35 0 -57 20t-29 44q-3 7 -4 14t-1 13v0z" />
    <glyph glyph-name="bracketright" unicode="&#xbd;" horiz-adv-x="570" 
d="M511 651l-70 -147h-10q-5 4 -10 8.5t-10 8.5q-25 19 -50 31.5t-53 13.5q-27 -1 -41 -11t-20 -23q-4 -7 -5 -14t-1 -12q0 -22 15 -34.5t34 -18.5q9 -3 18 -5t16 -4q18 -4 41.5 -10.5t48.5 -18.5q48 -22 88 -68.5t40 -136.5q0 -121 -79.5 -175t-183.5 -54l-10 -1
q-28 1 -53 5t-50 12q-37 12 -75.5 35t-83.5 60l93 149h10q5 -5 10 -9.5t10 -9.5q28 -24 62.5 -45t70.5 -27q4 -1 8 -1.5t8 -0.5q28 1 41 11t18 22q3 7 4 14t1 12q0 39 -27 55t-67 27q-2 1 -5 1.5t-6 1.5q-16 4 -34.5 10t-37.5 14q-46 21 -85 64.5t-39 128.5q0 89 63.5 150
t182.5 61h10q28 0 86 -10.5t122 -54.5q1 -1 2.5 -2t2.5 -2v0z" />
    <glyph glyph-name="bracketright" unicode="&#x405;" horiz-adv-x="570" 
d="M511 651l-70 -147h-10q-5 4 -10 8.5t-10 8.5q-25 19 -50 31.5t-53 13.5q-27 -1 -41 -11t-20 -23q-4 -7 -5 -14t-1 -12q0 -22 15 -34.5t34 -18.5q9 -3 18 -5t16 -4q18 -4 41.5 -10.5t48.5 -18.5q48 -22 88 -68.5t40 -136.5q0 -121 -79.5 -175t-183.5 -54l-10 -1
q-28 1 -53 5t-50 12q-37 12 -75.5 35t-83.5 60l93 149h10q5 -5 10 -9.5t10 -9.5q28 -24 62.5 -45t70.5 -27q4 -1 8 -1.5t8 -0.5q28 1 41 11t18 22q3 7 4 14t1 12q0 39 -27 55t-67 27q-2 1 -5 1.5t-6 1.5q-16 4 -34.5 10t-37.5 14q-46 21 -85 64.5t-39 128.5q0 89 63.5 150
t182.5 61h10q28 0 86 -10.5t122 -54.5q1 -1 2.5 -2t2.5 -2v0z" />
    <glyph glyph-name="R" unicode="&#xbe;" horiz-adv-x="476" 
d="M21 30l49 121h10q6 -4 13.5 -8t16.5 -9q20 -10 45.5 -18.5t53.5 -9.5q18 1 28 6.5t14 11.5q3 5 4 9t1 7q0 16 -11 24t-24 12q-5 1 -10.5 2t-10.5 2q-72 11 -117.5 42t-45.5 109q0 10 1 21t4 22q11 48 54.5 87.5t138.5 39.5h10q41 0 89.5 -9t99.5 -33l-55 -112h-10
q-3 2 -5.5 3.5t-4.5 3.5q-26 16 -51 23.5t-45 8.5q-21 -1 -31 -8t-13 -15q-3 -5 -3.5 -10t-0.5 -8v-4v-4q2 -11 15.5 -21t57.5 -15q12 -1 30 -4t37 -10q32 -13 59 -43t27 -90q0 -65 -46 -119t-168 -54l-10 -1q-61 1 -108 12.5t-88 37.5v0z" />
    <glyph glyph-name="R" unicode="&#x455;" horiz-adv-x="476" 
d="M21 30l49 121h10q6 -4 13.5 -8t16.5 -9q20 -10 45.5 -18.5t53.5 -9.5q18 1 28 6.5t14 11.5q3 5 4 9t1 7q0 16 -11 24t-24 12q-5 1 -10.5 2t-10.5 2q-72 11 -117.5 42t-45.5 109q0 10 1 21t4 22q11 48 54.5 87.5t138.5 39.5h10q41 0 89.5 -9t99.5 -33l-55 -112h-10
q-3 2 -5.5 3.5t-4.5 3.5q-26 16 -51 23.5t-45 8.5q-21 -1 -31 -8t-13 -15q-3 -5 -3.5 -10t-0.5 -8v-4v-4q2 -11 15.5 -21t57.5 -15q12 -1 30 -4t37 -10q32 -13 59 -43t27 -90q0 -65 -46 -119t-168 -54l-10 -1q-61 1 -108 12.5t-88 37.5v0z" />
    <glyph glyph-name="underscore" unicode="&#xbf;" horiz-adv-x="358" 
d="M96 483h175v-483h-10h-175v483h10v0zM20 616q0 36 20.5 56.5t45.5 20.5h10q28 0 48 -22t20 -55q0 -31 -19.5 -54t-48.5 -23h-10h-2.5h-2.5q-23 2 -42 22t-19 55v0zM194 616q0 34 17.5 53t38.5 23q2 0 5 0.5t6 0.5h10q27 0 47 -22t20 -55q0 -31 -19 -54t-48 -23h-10h-1.5
h-1.5q-24 1 -44 21t-20 56v0z" />
    <glyph glyph-name="underscore" unicode="&#x457;" horiz-adv-x="358" 
d="M96 483h175v-483h-10h-175v483h10v0zM20 616q0 36 20.5 56.5t45.5 20.5h10q28 0 48 -22t20 -55q0 -31 -19.5 -54t-48.5 -23h-10h-2.5h-2.5q-23 2 -42 22t-19 55v0zM194 616q0 34 17.5 53t38.5 23q2 0 5 0.5t6 0.5h10q27 0 47 -22t20 -55q0 -31 -19 -54t-48 -23h-10h-1.5
h-1.5q-24 1 -44 21t-20 56v0z" />
    <glyph glyph-name="grave" unicode="&#xc0;" horiz-adv-x="731" 
d="M-7 0l249 700h10h238l248 -700h-10h-210l-38 121h-228l-39 -121h-10h-210v0zM366 522l-75 -247h150l-75 247v0z" />
    <glyph glyph-name="grave" unicode="&#x410;" horiz-adv-x="731" 
d="M-7 0l249 700h10h238l248 -700h-10h-210l-38 121h-228l-39 -121h-10h-210v0zM366 522l-75 -247h150l-75 247v0z" />
    <glyph glyph-name="a" unicode="&#xc1;" horiz-adv-x="675" 
d="M63 0v700h10h517v-168h-321v-105h103q21 0 55 -2t71 -13q56 -16 102.5 -59.5t46.5 -135.5q0 -95 -46.5 -140t-101.5 -61q-37 -12 -72 -14t-55 -2h-10h-299v0zM269 140h74q44 0 71 15.5t27 58.5q0 42 -26.5 57.5t-71.5 15.5h-74v-147v0z" />
    <glyph glyph-name="a" unicode="&#x411;" horiz-adv-x="675" 
d="M63 0v700h10h517v-168h-321v-105h103q21 0 55 -2t71 -13q56 -16 102.5 -59.5t46.5 -135.5q0 -95 -46.5 -140t-101.5 -61q-37 -12 -72 -14t-55 -2h-10h-299v0zM269 140h74q44 0 71 15.5t27 58.5q0 42 -26.5 57.5t-71.5 15.5h-74v-147v0z" />
    <glyph glyph-name="b" unicode="&#xc2;" horiz-adv-x="688" 
d="M73 700h339q95 0 139 -34t58 -75q7 -19 9.5 -36.5t2.5 -32.5q0 -54 -32.5 -92t-76.5 -54v-2q12 -3 29 -9t35 -17q31 -19 57.5 -55t26.5 -98q0 -6 -0.5 -11.5t-0.5 -11.5q-7 -64 -60 -118t-168 -54h-10h-358v700h10v0zM269 140h80q8 0 21 0.5t26 3.5q22 5 40 20.5t18 49.5
q0 33 -18.5 47.5t-39.5 19.5q-12 2 -23.5 2.5t-19.5 0.5h-84v-144v0zM269 424h72q43 0 62 13.5t25 30.5q2 6 2.5 11.5t0.5 10.5q0 27 -19.5 48.5t-70.5 21.5h-72v-136v0z" />
    <glyph glyph-name="b" unicode="&#x412;" horiz-adv-x="688" 
d="M73 700h339q95 0 139 -34t58 -75q7 -19 9.5 -36.5t2.5 -32.5q0 -54 -32.5 -92t-76.5 -54v-2q12 -3 29 -9t35 -17q31 -19 57.5 -55t26.5 -98q0 -6 -0.5 -11.5t-0.5 -11.5q-7 -64 -60 -118t-168 -54h-10h-358v700h10v0zM269 140h80q8 0 21 0.5t26 3.5q22 5 40 20.5t18 49.5
q0 33 -18.5 47.5t-39.5 19.5q-12 2 -23.5 2.5t-19.5 0.5h-84v-144v0zM269 424h72q43 0 62 13.5t25 30.5q2 6 2.5 11.5t0.5 10.5q0 27 -19.5 48.5t-70.5 21.5h-72v-136v0z" />
    <glyph glyph-name="c" unicode="&#xc3;" horiz-adv-x="507" 
d="M63 0v700h10h420v-168h-224v-532h-10h-196v0z" />
    <glyph glyph-name="c" unicode="&#x413;" horiz-adv-x="507" 
d="M63 0v700h10h420v-168h-224v-532h-10h-196v0z" />
    <glyph glyph-name="d" unicode="&#xc4;" horiz-adv-x="757" 
d="M150 700h516v-532h84v-308h-10h-168v140h-394v-140h-10h-168v308q5 0 9.5 0.5t9.5 1.5q42 8 78.5 45.5t41.5 112.5q1 12 1 24.5v25.5v8v8v306h10v0zM330 532v-166q0 -66 -12.5 -116.5t-61.5 -81.5h204v364h-130v0z" />
    <glyph glyph-name="d" unicode="&#x414;" horiz-adv-x="757" 
d="M150 700h516v-532h84v-308h-10h-168v140h-394v-140h-10h-168v308q5 0 9.5 0.5t9.5 1.5q42 8 78.5 45.5t41.5 112.5q1 12 1 24.5v25.5v8v8v306h10v0zM330 532v-166q0 -66 -12.5 -116.5t-61.5 -81.5h204v364h-130v0z" />
    <glyph glyph-name="e" unicode="&#xc5;" horiz-adv-x="535" 
d="M63 0v700h10h420v-168h-224v-98h203v-154h-203v-112h224v-168h-10h-420v0z" />
    <glyph glyph-name="e" unicode="&#x415;" horiz-adv-x="535" 
d="M63 0v700h10h420v-168h-224v-98h203v-154h-203v-112h224v-168h-10h-420v0z" />
    <glyph glyph-name="f" unicode="&#xc6;" horiz-adv-x="1052" 
d="M423 0v292l-179 -292h-10h-241l255 357l-234 343h10h223l176 -288v288h10h196v-288l176 288h10h223l-234 -343l255 -357h-10h-241l-179 292v-292h-10h-196v0z" />
    <glyph glyph-name="f" unicode="&#x416;" horiz-adv-x="1052" 
d="M423 0v292l-179 -292h-10h-241l255 357l-234 343h10h223l176 -288v288h10h196v-288l176 288h10h223l-234 -343l255 -357h-10h-241l-179 292v-292h-10h-196v0z" />
    <glyph glyph-name="g" unicode="&#xc7;" horiz-adv-x="601" 
d="M137 424h111q51 0 73 15.5t28 33.5q2 6 2.5 12t0.5 11q0 32 -25.5 50.5t-69.5 19.5q-29 -1 -53.5 -8.5t-47.5 -19.5q-9 -4 -17.5 -9t-17.5 -11h-10l-68 137q9 5 23.5 12.5t33.5 15.5q33 14 78 25.5t101 11.5h10q122 0 195.5 -56.5t73.5 -141.5q0 -54 -31.5 -97t-83.5 -61
v-3q5 -1 9.5 -3t9.5 -4q42 -16 76.5 -53.5t34.5 -106.5q0 -103 -83 -158t-198 -55l-10 -1q-31 1 -58.5 4t-54.5 10q-36 10 -74.5 31.5t-87.5 58.5l81 130h10q21 -20 45.5 -36t49.5 -27q18 -7 36 -11.5t35 -5.5q43 1 64 17t28 35q3 6 4 12.5t1 12.5q0 30 -24 51.5t-89 21.5
h-111v140v0z" />
    <glyph glyph-name="g" unicode="&#x417;" horiz-adv-x="601" 
d="M137 424h111q51 0 73 15.5t28 33.5q2 6 2.5 12t0.5 11q0 32 -25.5 50.5t-69.5 19.5q-29 -1 -53.5 -8.5t-47.5 -19.5q-9 -4 -17.5 -9t-17.5 -11h-10l-68 137q9 5 23.5 12.5t33.5 15.5q33 14 78 25.5t101 11.5h10q122 0 195.5 -56.5t73.5 -141.5q0 -54 -31.5 -97t-83.5 -61
v-3q5 -1 9.5 -3t9.5 -4q42 -16 76.5 -53.5t34.5 -106.5q0 -103 -83 -158t-198 -55l-10 -1q-31 1 -58.5 4t-54.5 10q-36 10 -74.5 31.5t-87.5 58.5l81 130h10q21 -20 45.5 -36t49.5 -27q18 -7 36 -11.5t35 -5.5q43 1 64 17t28 35q3 6 4 12.5t1 12.5q0 30 -24 51.5t-89 21.5
h-111v140v0z" />
    <glyph glyph-name="h" unicode="&#xc8;" horiz-adv-x="788" 
d="M73 700h189v-405l261 405h10h192v-700h-10h-189v404l-257 -404h-10h-196v700h10v0z" />
    <glyph glyph-name="h" unicode="&#x418;" horiz-adv-x="788" 
d="M73 700h189v-405l261 405h10h192v-700h-10h-189v404l-257 -404h-10h-196v700h10v0z" />
    <glyph glyph-name="i" unicode="&#xc9;" horiz-adv-x="788" 
d="M73 700h189v-405l261 405h10h192v-700h-10h-189v404l-257 -404h-10h-196v700h10v0zM199 850l114 42h10q6 -23 18 -35t26 -17q9 -4 18 -5.5t16 -1.5t16 1.5t18 5.5q14 5 26 17t18 35h10l114 -42q-26 -60 -80.5 -86t-116.5 -26h-10q-69 0 -122 29.5t-75 82.5v0z" />
    <glyph glyph-name="i" unicode="&#x419;" horiz-adv-x="788" 
d="M73 700h189v-405l261 405h10h192v-700h-10h-189v404l-257 -404h-10h-196v700h10v0zM199 850l114 42h10q6 -23 18 -35t26 -17q9 -4 18 -5.5t16 -1.5t16 1.5t18 5.5q14 5 26 17t18 35h10l114 -42q-26 -60 -80.5 -86t-116.5 -26h-10q-69 0 -122 29.5t-75 82.5v0z" />
    <glyph glyph-name="j" unicode="&#xca;" horiz-adv-x="710" 
d="M63 0v700h10h196v-280l201 280h10h230l-266 -339l273 -361h-10h-245l-193 286v-286h-10h-196v0z" />
    <glyph glyph-name="j" unicode="&#x41a;" horiz-adv-x="710" 
d="M63 0v700h10h196v-280l201 280h10h230l-266 -339l273 -361h-10h-245l-193 286v-286h-10h-196v0z" />
    <glyph glyph-name="k" unicode="&#xcb;" horiz-adv-x="745" 
d="M150 700h532v-700h-10h-196v532h-130v-276q0 -22 -1.5 -48t-7.5 -53q-13 -62 -64.5 -112.5t-180.5 -50.5l-10 -1q-16 1 -28.5 1.5t-24.5 2.5q-7 1 -14 2.5t-15 2.5v168h10q10 -3 19.5 -4.5t19.5 -2.5q65 2 78 46.5t13 106.5v386h10v0z" />
    <glyph glyph-name="k" unicode="&#x41b;" horiz-adv-x="745" 
d="M150 700h532v-700h-10h-196v532h-130v-276q0 -22 -1.5 -48t-7.5 -53q-13 -62 -64.5 -112.5t-180.5 -50.5l-10 -1q-16 1 -28.5 1.5t-24.5 2.5q-7 1 -14 2.5t-15 2.5v168h10q10 -3 19.5 -4.5t19.5 -2.5q65 2 78 46.5t13 106.5v386h10v0z" />
    <glyph glyph-name="l" unicode="&#xcc;" horiz-adv-x="880" 
d="M14 0l102 700h10h196l118 -410l118 410h10h196l102 -700h-10h-188l-49 382l-111 -382h-10h-126l-111 382l-49 -382h-10h-188v0z" />
    <glyph glyph-name="l" unicode="&#x41c;" horiz-adv-x="880" 
d="M14 0l102 700h10h196l118 -410l118 410h10h196l102 -700h-10h-188l-49 382l-111 -382h-10h-126l-111 382l-49 -382h-10h-188v0z" />
    <glyph glyph-name="m" unicode="&#xcd;" horiz-adv-x="766" 
d="M63 0v700h10h196v-252h228v252h10h196v-700h-10h-196v280h-228v-280h-10h-196v0z" />
    <glyph glyph-name="m" unicode="&#x41d;" horiz-adv-x="766" 
d="M63 0v700h10h196v-252h228v252h10h196v-700h-10h-196v280h-228v-280h-10h-196v0z" />
    <glyph glyph-name="n" unicode="&#xce;" horiz-adv-x="826" 
d="M408 -20q-184 0 -280 111t-96 259q0 147 94.5 258.5t281.5 111.5h10q187 0 281.5 -111.5t94.5 -258.5q0 -148 -94.5 -258t-281.5 -111l-10 -1v0zM412 148q10 0 21 1.5t22 5.5q48 13 87.5 58.5t39.5 136.5t-40 136.5t-87 58.5q-11 3 -21.5 5t-20.5 2q-11 0 -23 -2t-23 -6
q-46 -14 -84.5 -59.5t-38.5 -134.5t38.5 -134.5t84.5 -59.5q11 -4 22.5 -6t22.5 -2v0z" />
    <glyph glyph-name="n" unicode="&#x41e;" horiz-adv-x="826" 
d="M408 -20q-184 0 -280 111t-96 259q0 147 94.5 258.5t281.5 111.5h10q187 0 281.5 -111.5t94.5 -258.5q0 -148 -94.5 -258t-281.5 -111l-10 -1v0zM412 148q10 0 21 1.5t22 5.5q48 13 87.5 58.5t39.5 136.5t-40 136.5t-87 58.5q-11 3 -21.5 5t-20.5 2q-11 0 -23 -2t-23 -6
q-46 -14 -84.5 -59.5t-38.5 -134.5t38.5 -134.5t84.5 -59.5q11 -4 22.5 -6t22.5 -2v0z" />
    <glyph glyph-name="o" unicode="&#xcf;" horiz-adv-x="760" 
d="M63 0v700h10h624v-700h-10h-196v532h-222v-532h-10h-196v0z" />
    <glyph glyph-name="o" unicode="&#x41f;" horiz-adv-x="760" 
d="M63 0v700h10h624v-700h-10h-196v532h-222v-532h-10h-196v0z" />
    <glyph glyph-name="p" unicode="&#xd0;" horiz-adv-x="651" 
d="M63 0v700h10h295q112 0 167.5 -48t74.5 -106q7 -21 10 -41.5t3 -38.5t-3 -38.5t-10 -41.5q-18 -58 -74 -106.5t-168 -48.5h-99v-231h-10h-196v0zM269 546v-161h46q43 0 63 14t27 30q4 11 5 21t1 16t-0.5 12t-1.5 12q-5 21 -25 38.5t-69 17.5h-46v0z" />
    <glyph glyph-name="p" unicode="&#x420;" horiz-adv-x="651" 
d="M63 0v700h10h295q112 0 167.5 -48t74.5 -106q7 -21 10 -41.5t3 -38.5t-3 -38.5t-10 -41.5q-18 -58 -74 -106.5t-168 -48.5h-99v-231h-10h-196v0zM269 546v-161h46q43 0 63 14t27 30q4 11 5 21t1 16t-0.5 12t-1.5 12q-5 21 -25 38.5t-69 17.5h-46v0z" />
    <glyph glyph-name="q" unicode="&#xd1;" horiz-adv-x="624" 
d="M589 32q-21 -14 -42 -23t-42 -15q-27 -8 -53.5 -10.5t-51.5 -2.5l-10 -1q-148 1 -253 98t-105 272q0 183 110 276.5t245 93.5h10q18 0 37 -2t39 -6q30 -6 59.5 -18t56.5 -30v-203h-10q-6 7 -14 15t-18 17q-22 19 -54.5 35t-74.5 17q-82 -2 -128 -61.5t-46 -139.5
q0 -90 51.5 -138.5t122.5 -50.5q53 2 93.5 25t67.5 51h10v-199v0z" />
    <glyph glyph-name="q" unicode="&#x421;" horiz-adv-x="624" 
d="M589 32q-21 -14 -42 -23t-42 -15q-27 -8 -53.5 -10.5t-51.5 -2.5l-10 -1q-148 1 -253 98t-105 272q0 183 110 276.5t245 93.5h10q18 0 37 -2t39 -6q30 -6 59.5 -18t56.5 -30v-203h-10q-6 7 -14 15t-18 17q-22 19 -54.5 35t-74.5 17q-82 -2 -128 -61.5t-46 -139.5
q0 -90 51.5 -138.5t122.5 -50.5q53 2 93.5 25t67.5 51h10v-199v0z" />
    <glyph glyph-name="Scaron" unicode="&#xd2;" horiz-adv-x="528" 
d="M161 0v532h-154v168h10h504v-168h-154v-532h-10h-196v0z" />
    <glyph glyph-name="Scaron" unicode="&#x422;" horiz-adv-x="528" 
d="M161 0v532h-154v168h10h504v-168h-154v-532h-10h-196v0z" />
    <glyph glyph-name="r" unicode="&#xd3;" horiz-adv-x="696" 
d="M168 0l95 193l-263 507h10h231l131 -282l108 282h10h213l-315 -700h-10h-210v0z" />
    <glyph glyph-name="r" unicode="&#x423;" horiz-adv-x="696" 
d="M168 0l95 193l-263 507h10h231l131 -282l108 282h10h213l-315 -700h-10h-210v0z" />
    <glyph glyph-name="t" unicode="&#xd4;" horiz-adv-x="930" 
d="M362 0v98q-25 0 -52 2t-55 8q-84 17 -153.5 77t-69.5 193q0 132 70 192.5t154 78.5q24 5 47.5 7t45.5 2h3.5h3.5h3h3v77h10h196v-77h8h8q26 0 61.5 -4t73.5 -17q67 -22 123 -80.5t56 -178.5q0 -135 -70.5 -194.5t-155.5 -76.5q-27 -5 -53.5 -7t-50.5 -2v-98h-10h-196v0z
M376 238v280q-57 -1 -85.5 -24t-40.5 -51q-8 -19 -10 -37t-2 -28t2 -28t10 -37q12 -28 40.5 -51t85.5 -24v0zM554 518v-280q11 0 27 2.5t32 8.5q30 11 54.5 40t24.5 89t-24.5 89t-54.5 40q-16 6 -32 8.5t-27 2.5v0z" />
    <glyph glyph-name="t" unicode="&#x424;" horiz-adv-x="930" 
d="M362 0v98q-25 0 -52 2t-55 8q-84 17 -153.5 77t-69.5 193q0 132 70 192.5t154 78.5q24 5 47.5 7t45.5 2h3.5h3.5h3h3v77h10h196v-77h8h8q26 0 61.5 -4t73.5 -17q67 -22 123 -80.5t56 -178.5q0 -135 -70.5 -194.5t-155.5 -76.5q-27 -5 -53.5 -7t-50.5 -2v-98h-10h-196v0z
M376 238v280q-57 -1 -85.5 -24t-40.5 -51q-8 -19 -10 -37t-2 -28t2 -28t10 -37q12 -28 40.5 -51t85.5 -24v0zM554 518v-280q11 0 27 2.5t32 8.5q30 11 54.5 40t24.5 89t-24.5 89t-54.5 40q-16 6 -32 8.5t-27 2.5v0z" />
    <glyph glyph-name="u" unicode="&#xd5;" horiz-adv-x="723" 
d="M362 223l-135 -223h-10h-224l256 368l-231 332h10h235l99 -180l99 180h10h222l-219 -322l256 -378h-10h-231l-127 223v0z" />
    <glyph glyph-name="u" unicode="&#x425;" horiz-adv-x="723" 
d="M362 223l-135 -223h-10h-224l256 368l-231 332h10h235l99 -180l99 180h10h222l-219 -322l256 -378h-10h-231l-127 223v0z" />
    <glyph glyph-name="zero" unicode="&#xd6;" horiz-adv-x="787" 
d="M63 0v700h10h196v-532h221v532h10h196v-532h84v-308h-10h-168v140h-539v0z" />
    <glyph glyph-name="zero" unicode="&#x426;" horiz-adv-x="787" 
d="M63 0v700h10h196v-532h221v532h10h196v-532h84v-308h-10h-168v140h-539v0z" />
    <glyph glyph-name="parenright" unicode="&#xd7;" horiz-adv-x="689" 
d="M420 0v272q-35 -5 -55.5 -6.5t-37.5 -2.5h-13h-15h-10q-167 0 -206 65t-41 143v13.5v12.5v203h10h196v-175q0 -42 13.5 -72.5t89.5 -32.5q9 0 22 1.5t47 5.5v273h10h196v-700h-10h-196v0z" />
    <glyph glyph-name="parenright" unicode="&#x427;" horiz-adv-x="689" 
d="M420 0v272q-35 -5 -55.5 -6.5t-37.5 -2.5h-13h-15h-10q-167 0 -206 65t-41 143v13.5v12.5v203h10h196v-175q0 -42 13.5 -72.5t89.5 -32.5q9 0 22 1.5t47 5.5v273h10h196v-700h-10h-196v0z" />
    <glyph glyph-name="x" unicode="&#xd8;" horiz-adv-x="1060" 
d="M63 0v700h10h196v-532h158v532h10h196v-532h158v532h10h196v-700h-10h-924v0z" />
    <glyph glyph-name="x" unicode="&#x428;" horiz-adv-x="1060" 
d="M63 0v700h10h196v-532h158v532h10h196v-532h158v532h10h196v-700h-10h-924v0z" />
    <glyph glyph-name="y" unicode="&#xd9;" horiz-adv-x="1088" 
d="M63 0v700h10h196v-532h158v532h10h196v-532h158v532h10h196v-532h84v-308h-10h-168v140h-840v0z" />
    <glyph glyph-name="y" unicode="&#x429;" horiz-adv-x="1088" 
d="M63 0v700h10h196v-532h158v532h10h196v-532h158v532h10h196v-532h84v-308h-10h-168v140h-840v0z" />
    <glyph glyph-name="z" unicode="&#xda;" horiz-adv-x="759" 
d="M147 0v532h-140v168h10h336v-273h103q21 0 55 -2t71 -13q56 -16 102.5 -60t46.5 -138t-46.5 -138.5t-101.5 -60.5q-37 -11 -72 -13t-55 -2h-10h-299v0zM353 140h74q44 0 71 15.5t27 58.5q0 42 -26.5 57.5t-71.5 15.5h-74v-147v0z" />
    <glyph glyph-name="z" unicode="&#x42a;" horiz-adv-x="759" 
d="M147 0v532h-140v168h10h336v-273h103q21 0 55 -2t71 -13q56 -16 102.5 -60t46.5 -138t-46.5 -138.5t-101.5 -60.5q-37 -11 -72 -13t-55 -2h-10h-299v0zM353 140h74q44 0 71 15.5t27 58.5q0 42 -26.5 57.5t-71.5 15.5h-74v-147v0z" />
    <glyph glyph-name="braceleft" unicode="&#xdb;" horiz-adv-x="948" 
d="M63 0v700h10h196v-273h103q21 0 55 -2t71 -13q56 -16 102.5 -60t46.5 -138t-46.5 -138.5t-101.5 -60.5q-37 -11 -72 -13t-55 -2h-10h-299v0zM269 140h74q44 0 71 15.5t27 58.5q0 42 -26.5 57.5t-71.5 15.5h-74v-147v0zM679 0v700h10h196v-700h-10h-196v0z" />
    <glyph glyph-name="braceleft" unicode="&#x42b;" horiz-adv-x="948" 
d="M63 0v700h10h196v-273h103q21 0 55 -2t71 -13q56 -16 102.5 -60t46.5 -138t-46.5 -138.5t-101.5 -60.5q-37 -11 -72 -13t-55 -2h-10h-299v0zM269 140h74q44 0 71 15.5t27 58.5q0 42 -26.5 57.5t-71.5 15.5h-74v-147v0zM679 0v700h10h196v-700h-10h-196v0z" />
    <glyph glyph-name="bar" unicode="&#xdc;" horiz-adv-x="675" 
d="M63 0v700h10h196v-273h103q21 0 55 -2t71 -13q56 -16 102.5 -60t46.5 -138t-46.5 -138.5t-101.5 -60.5q-37 -11 -72 -13t-55 -2h-10h-299v0zM269 140h74q44 0 71 15.5t27 58.5q0 42 -26.5 57.5t-71.5 15.5h-74v-147v0z" />
    <glyph glyph-name="bar" unicode="&#x42c;" horiz-adv-x="675" 
d="M63 0v700h10h196v-273h103q21 0 55 -2t71 -13q56 -16 102.5 -60t46.5 -138t-46.5 -138.5t-101.5 -60.5q-37 -11 -72 -13t-55 -2h-10h-299v0zM269 140h74q44 0 71 15.5t27 58.5q0 42 -26.5 57.5t-71.5 15.5h-74v-147v0z" />
    <glyph glyph-name="braceright" unicode="&#xdd;" horiz-adv-x="630" 
d="M168 427h224q-10 59 -57.5 98.5t-115.5 40.5h-6.5t-7.5 -1q-41 -3 -80.5 -19.5t-72.5 -46.5h-10v172q23 12 48 21.5t51 15.5t51 9t48 3h10q144 0 246 -98t102 -262q0 -181 -104 -280t-245 -99l-10 -1q-25 1 -53 4t-57 10q-22 6 -44 14t-43 20v175h10q37 -33 82 -50.5
t94 -18.5q79 2 122.5 46.5t48.5 106.5h-231v140v0z" />
    <glyph glyph-name="braceright" unicode="&#x42d;" horiz-adv-x="630" 
d="M168 427h224q-10 59 -57.5 98.5t-115.5 40.5h-6.5t-7.5 -1q-41 -3 -80.5 -19.5t-72.5 -46.5h-10v172q23 12 48 21.5t51 15.5t51 9t48 3h10q144 0 246 -98t102 -262q0 -181 -104 -280t-245 -99l-10 -1q-25 1 -53 4t-57 10q-22 6 -44 14t-43 20v175h10q37 -33 82 -50.5
t94 -18.5q79 2 122.5 46.5t48.5 106.5h-231v140v0z" />
    <glyph glyph-name="asciitilde" unicode="&#xde;" horiz-adv-x="1122" 
d="M269 432h66q2 17 6.5 35t11.5 36q30 81 112.5 149t238.5 68h10q187 0 281.5 -112t94.5 -258q0 -148 -94.5 -258.5t-281.5 -110.5l-10 -1q-151 1 -255 84.5t-115 213.5h-65v-278h-10h-196v700h10h196v-268v0zM708 148q10 0 21 1.5t22 5.5q48 13 87.5 58.5t39.5 136.5
t-40 136.5t-87 58.5q-11 3 -21.5 5t-20.5 2q-11 0 -23 -2t-23 -6q-46 -14 -84.5 -59.5t-38.5 -134.5t38.5 -134.5t84.5 -59.5q11 -4 22.5 -6t22.5 -2v0z" />
    <glyph glyph-name="asciitilde" unicode="&#x42e;" horiz-adv-x="1122" 
d="M269 432h66q2 17 6.5 35t11.5 36q30 81 112.5 149t238.5 68h10q187 0 281.5 -112t94.5 -258q0 -148 -94.5 -258.5t-281.5 -110.5l-10 -1q-151 1 -255 84.5t-115 213.5h-65v-278h-10h-196v700h10h196v-268v0zM708 148q10 0 21 1.5t22 5.5q48 13 87.5 58.5t39.5 136.5
t-40 136.5t-87 58.5q-11 3 -21.5 5t-20.5 2q-11 0 -23 -2t-23 -6q-46 -14 -84.5 -59.5t-38.5 -134.5t38.5 -134.5t84.5 -59.5q11 -4 22.5 -6t22.5 -2v0z" />
    <glyph glyph-name="germandbls" unicode="&#xdf;" horiz-adv-x="654" 
d="M14 0l189 263q-10 2 -20 4.5t-21 7.5q-45 18 -82.5 63.5t-37.5 128.5q0 120 72 176.5t180 56.5h10h287v-700h-10h-196v238h-8l-143 -238h-10h-210v0zM385 378v168h-44q-7 0 -20 -1t-27 -5q-20 -7 -36.5 -24.5t-16.5 -53.5q0 -43 20.5 -60t45.5 -22q9 -1 17.5 -1.5
t16.5 -0.5h44v0z" />
    <glyph glyph-name="germandbls" unicode="&#x42f;" horiz-adv-x="654" 
d="M14 0l189 263q-10 2 -20 4.5t-21 7.5q-45 18 -82.5 63.5t-37.5 128.5q0 120 72 176.5t180 56.5h10h287v-700h-10h-196v238h-8l-143 -238h-10h-210v0zM385 378v168h-44q-7 0 -20 -1t-27 -5q-20 -7 -36.5 -24.5t-16.5 -53.5q0 -43 20.5 -60t45.5 -22q9 -1 17.5 -1.5
t16.5 -0.5h44v0z" />
    <glyph glyph-name="agrave" unicode="&#xe0;" horiz-adv-x="647" 
d="M413 436v47h10h168v-483h-10h-168v45q-26 -28 -63 -45t-85 -17l-10 -1q-109 1 -167 79t-58 181q0 12 1 25t3 26q11 78 63.5 143t157.5 65h10q41 0 77.5 -13t70.5 -52v0zM320 126q44 2 72 32.5t28 83.5q0 52 -28 83t-72 32q-48 -2 -72 -34t-27 -70v-5.5v-5.5q0 -44 24 -79
t75 -37v0z" />
    <glyph glyph-name="agrave" unicode="&#x430;" horiz-adv-x="647" 
d="M413 436v47h10h168v-483h-10h-168v45q-26 -28 -63 -45t-85 -17l-10 -1q-109 1 -167 79t-58 181q0 12 1 25t3 26q11 78 63.5 143t157.5 65h10q41 0 77.5 -13t70.5 -52v0zM320 126q44 2 72 32.5t28 83.5q0 52 -28 83t-72 32q-48 -2 -72 -34t-27 -70v-5.5v-5.5q0 -44 24 -79
t75 -37v0z" />
    <glyph glyph-name="K" unicode="&#xe1;" horiz-adv-x="640" 
d="M193 399q15 19 32.5 31.5t35.5 21.5q31 13 59 16.5t42 3.5h10q110 0 174 -69t64 -163v-2.5v-3.5q-2 -94 -65.5 -172.5t-212.5 -78.5l-10 -1q-1 1 -1.5 1h-1.5q-15 0 -54.5 3.5t-83.5 22.5q-55 26 -100.5 89.5t-45.5 192.5q0 182 64.5 263t141.5 111q23 8 45.5 14t43.5 10
q12 2 23.5 4t21.5 4q28 4 46.5 11.5t21.5 26.5h10h140q-2 -60 -33 -93.5t-67 -50.5q-22 -10 -42.5 -16t-34.5 -9q-7 -2 -13 -3t-13 -3q-83 -20 -132.5 -50t-64.5 -111v0zM323 108q51 2 73.5 38t22.5 81q0 54 -26 85.5t-70 33.5q-50 -2 -73.5 -38t-23.5 -81t23.5 -81
t73.5 -38v0z" />
    <glyph glyph-name="K" unicode="&#x431;" horiz-adv-x="640" 
d="M193 399q15 19 32.5 31.5t35.5 21.5q31 13 59 16.5t42 3.5h10q110 0 174 -69t64 -163v-2.5v-3.5q-2 -94 -65.5 -172.5t-212.5 -78.5l-10 -1q-1 1 -1.5 1h-1.5q-15 0 -54.5 3.5t-83.5 22.5q-55 26 -100.5 89.5t-45.5 192.5q0 182 64.5 263t141.5 111q23 8 45.5 14t43.5 10
q12 2 23.5 4t21.5 4q28 4 46.5 11.5t21.5 26.5h10h140q-2 -60 -33 -93.5t-67 -50.5q-22 -10 -42.5 -16t-34.5 -9q-7 -2 -13 -3t-13 -3q-83 -20 -132.5 -50t-64.5 -111v0zM323 108q51 2 73.5 38t22.5 81q0 54 -26 85.5t-70 33.5q-50 -2 -73.5 -38t-23.5 -81t23.5 -81
t73.5 -38v0z" />
    <glyph glyph-name="quotedbl" unicode="&#xe2;" horiz-adv-x="570" 
d="M56 0v483h10h316q9 0 27.5 -1.5t38.5 -8.5q28 -9 50.5 -32t22.5 -70q0 -10 -2 -25t-8 -31q-8 -19 -25 -36.5t-48 -26.5v-2q9 -2 19.5 -5t21.5 -9q24 -12 43.5 -38.5t19.5 -74.5q0 -50 -24.5 -75t-53.5 -36q-24 -9 -46 -10.5t-29 -1.5h-10h-323v0zM234 105h67
q23 0 34.5 7.5t16.5 16.5q3 7 4 13t1 9q0 21 -14.5 34.5t-41.5 13.5h-67v-94v0zM234 294h62q4 0 9 0.5t10 1.5q12 2 22 11t10 30q0 19 -9.5 27.5t-21.5 11.5q-6 1 -11 1.5t-9 0.5h-62v-84v0z" />
    <glyph glyph-name="quotedbl" unicode="&#x432;" horiz-adv-x="570" 
d="M56 0v483h10h316q9 0 27.5 -1.5t38.5 -8.5q28 -9 50.5 -32t22.5 -70q0 -10 -2 -25t-8 -31q-8 -19 -25 -36.5t-48 -26.5v-2q9 -2 19.5 -5t21.5 -9q24 -12 43.5 -38.5t19.5 -74.5q0 -50 -24.5 -75t-53.5 -36q-24 -9 -46 -10.5t-29 -1.5h-10h-323v0zM234 105h67
q23 0 34.5 7.5t16.5 16.5q3 7 4 13t1 9q0 21 -14.5 34.5t-41.5 13.5h-67v-94v0zM234 294h62q4 0 9 0.5t10 1.5q12 2 22 11t10 30q0 19 -9.5 27.5t-21.5 11.5q-6 1 -11 1.5t-9 0.5h-62v-84v0z" />
    <glyph glyph-name="atilde" unicode="&#xe3;" horiz-adv-x="409" 
d="M56 0v483h10h336v-126h-161v-357h-10h-175v0z" />
    <glyph glyph-name="atilde" unicode="&#x433;" horiz-adv-x="409" 
d="M56 0v483h10h336v-126h-161v-357h-10h-175v0z" />
    <glyph glyph-name="adieresis" unicode="&#xe4;" horiz-adv-x="654" 
d="M129 483h441v-363h70v-260h-10h-154v140h-298v-140h-10h-154v260q47 0 69 32t29 70q5 22 6 42.5t1 35.5v183h10v0zM392 120v243h-106v-87q0 -53 -10.5 -88.5t-43.5 -67.5h160v0z" />
    <glyph glyph-name="adieresis" unicode="&#x434;" horiz-adv-x="654" 
d="M129 483h441v-363h70v-260h-10h-154v140h-298v-140h-10h-154v260q47 0 69 32t29 70q5 22 6 42.5t1 35.5v183h10v0zM392 120v243h-106v-87q0 -53 -10.5 -88.5t-43.5 -67.5h160v0z" />
    <glyph glyph-name="yright" unicode="&#xe5;" horiz-adv-x="602" 
d="M568 147q-20 -59 -55.5 -92.5t-73.5 -49.5q-39 -15 -75 -18.5t-56 -3.5l-10 -1q-109 1 -188.5 66t-79.5 194q0 112 69.5 185.5t196.5 73.5h10q118 0 175 -56t77 -123q8 -28 11 -55t3 -50v-7.5v-6.5h-368v-5q0 -6 0.5 -12t1.5 -12q6 -32 29 -59t68 -28q34 2 57 17t30 43
h10h168v0zM208 298h186q-2 36 -24.5 66t-68.5 32q-41 -2 -66 -30.5t-27 -67.5v0z" />
    <glyph glyph-name="yright" unicode="&#x435;" horiz-adv-x="602" 
d="M568 147q-20 -59 -55.5 -92.5t-73.5 -49.5q-39 -15 -75 -18.5t-56 -3.5l-10 -1q-109 1 -188.5 66t-79.5 194q0 112 69.5 185.5t196.5 73.5h10q118 0 175 -56t77 -123q8 -28 11 -55t3 -50v-7.5v-6.5h-368v-5q0 -6 0.5 -12t1.5 -12q6 -32 29 -59t68 -28q34 2 57 17t30 43
h10h168v0zM208 298h186q-2 36 -24.5 66t-68.5 32q-41 -2 -66 -30.5t-27 -67.5v0z" />
    <glyph glyph-name="guilsinglright" unicode="&#xe6;" horiz-adv-x="870" 
d="M346 0v195l-130 -195h-10h-217l196 252l-168 231h10h203l116 -187v187h10h168v-187l116 187h10h203l-168 -231l196 -252h-10h-217l-130 195v-195h-10h-168v0z" />
    <glyph glyph-name="guilsinglright" unicode="&#x436;" horiz-adv-x="870" 
d="M346 0v195l-130 -195h-10h-217l196 252l-168 231h10h203l116 -187v187h10h168v-187l116 187h10h203l-168 -231l196 -252h-10h-217l-130 195v-195h-10h-168v0z" />
    <glyph glyph-name="florin" unicode="&#xe7;" horiz-adv-x="507" 
d="M85 345l-47 108q22 12 47 20.5t51 14.5q28 7 55.5 10t50.5 3h10q95 0 146.5 -37t51.5 -99q0 -37 -19 -67.5t-53 -45.5v-2q41 -9 63 -31t31 -46q4 -11 5.5 -21.5t1.5 -20.5q0 -5 -4 -27t-22 -47q-20 -28 -66 -51t-133 -23l-10 -1q-29 1 -90 9.5t-133 48.5l45 114h10
q12 -7 23 -13t21 -10q23 -11 47 -16.5t54 -6.5q26 1 40 8.5t20 16.5q5 6 6 12.5t1 9.5q0 21 -15 29.5t-32 10.5q-7 1 -13 1h-12h-76v105h86q5 0 12 0.5t15 2.5q12 3 22 11.5t10 26.5q0 20 -13 29t-29 13q-6 1 -12 1.5t-11 0.5q-8 0 -16 -1t-17 -3q-24 -4 -48 -14t-44 -23
h-10v0z" />
    <glyph glyph-name="florin" unicode="&#x437;" horiz-adv-x="507" 
d="M85 345l-47 108q22 12 47 20.5t51 14.5q28 7 55.5 10t50.5 3h10q95 0 146.5 -37t51.5 -99q0 -37 -19 -67.5t-53 -45.5v-2q41 -9 63 -31t31 -46q4 -11 5.5 -21.5t1.5 -20.5q0 -5 -4 -27t-22 -47q-20 -28 -66 -51t-133 -23l-10 -1q-29 1 -90 9.5t-133 48.5l45 114h10
q12 -7 23 -13t21 -10q23 -11 47 -16.5t54 -6.5q26 1 40 8.5t20 16.5q5 6 6 12.5t1 9.5q0 21 -15 29.5t-32 10.5q-7 1 -13 1h-12h-76v105h86q5 0 12 0.5t15 2.5q12 3 22 11.5t10 26.5q0 20 -13 29t-29 13q-6 1 -12 1.5t-11 0.5q-8 0 -16 -1t-17 -3q-24 -4 -48 -14t-44 -23
h-10v0z" />
    <glyph glyph-name="comma" unicode="&#xe8;" horiz-adv-x="640" 
d="M66 483h175v-244l165 244h10h168v-483h-10h-175v251l-163 -251h-10h-170v483h10v0z" />
    <glyph glyph-name="comma" unicode="&#x438;" horiz-adv-x="640" 
d="M66 483h175v-244l165 244h10h168v-483h-10h-175v251l-163 -251h-10h-170v483h10v0z" />
    <glyph glyph-name="L" unicode="&#xe9;" horiz-adv-x="634" 
d="M63 483h175v-244l165 244h10h168v-483h-10h-175v251l-163 -251h-10h-170v483h10v0zM128 658l114 42h10q7 -23 19 -35t25 -17q9 -4 18 -5.5t16 -1.5t16 1.5t18 4.5q14 5 26.5 17.5t18.5 35.5h10l114 -42q-26 -60 -80.5 -86t-116.5 -26h-10h-7.5h-6.5q-57 3 -108 29.5
t-76 82.5v0z" />
    <glyph glyph-name="L" unicode="&#x439;" horiz-adv-x="634" 
d="M63 483h175v-244l165 244h10h168v-483h-10h-175v251l-163 -251h-10h-170v483h10v0zM128 658l114 42h10q7 -23 19 -35t25 -17q9 -4 18 -5.5t16 -1.5t16 1.5t18 4.5q14 5 26.5 17.5t18.5 35.5h10l114 -42q-26 -60 -80.5 -86t-116.5 -26h-10h-7.5h-6.5q-57 3 -108 29.5
t-76 82.5v0z" />
    <glyph glyph-name="asterisk" unicode="&#xea;" horiz-adv-x="608" 
d="M56 0v483h10h175v-184l136 184h10h214l-199 -227l217 -256h-10h-221l-147 200v-200h-10h-175v0z" />
    <glyph glyph-name="asterisk" unicode="&#x43a;" horiz-adv-x="608" 
d="M56 0v483h10h175v-184l136 184h10h214l-199 -227l217 -256h-10h-221l-147 200v-200h-10h-175v0z" />
    <glyph glyph-name="edieresis" unicode="&#xeb;" horiz-adv-x="633" 
d="M577 483v-483h-10h-175v363h-102v-202q0 -14 -1.5 -32t-6.5 -37q-11 -38 -46.5 -70t-119.5 -32l-10 -1q-10 1 -23 2t-26 3q-8 1 -15.5 2.5t-15.5 2.5q-3 0 -6 0.5t-6 0.5v126h10q4 -1 8.5 -2t9.5 -2q2 0 4.5 -0.5t4.5 -0.5q23 2 42 19.5t19 66.5v276h10h455v0z" />
    <glyph glyph-name="edieresis" unicode="&#x43b;" horiz-adv-x="633" 
d="M577 483v-483h-10h-175v363h-102v-202q0 -14 -1.5 -32t-6.5 -37q-11 -38 -46.5 -70t-119.5 -32l-10 -1q-10 1 -23 2t-26 3q-8 1 -15.5 2.5t-15.5 2.5q-3 0 -6 0.5t-6 0.5v126h10q4 -1 8.5 -2t9.5 -2q2 0 4.5 -0.5t4.5 -0.5q23 2 42 19.5t19 66.5v276h10h455v0z" />
    <glyph glyph-name="igrave" unicode="&#xec;" horiz-adv-x="772" 
d="M14 0l77 483h10h189l96 -273l96 273h10h189l77 -483h-10h-166l-38 247l-90 -247h-10h-126l-90 247l-38 -247h-10h-166v0z" />
    <glyph glyph-name="igrave" unicode="&#x43c;" horiz-adv-x="772" 
d="M14 0l77 483h10h189l96 -273l96 273h10h189l77 -483h-10h-166l-38 247l-90 -247h-10h-126l-90 247l-38 -247h-10h-166v0z" />
    <glyph glyph-name="ellipsis" unicode="&#xed;" horiz-adv-x="633" 
d="M56 0v483h10h175v-170h151v170h10h175v-483h-10h-175v193h-151v-193h-10h-175v0z" />
    <glyph glyph-name="ellipsis" unicode="&#x43d;" horiz-adv-x="633" 
d="M56 0v483h10h175v-170h151v170h10h175v-483h-10h-175v193h-151v-193h-10h-175v0z" />
    <glyph glyph-name="percent" unicode="&#xee;" horiz-adv-x="648" 
d="M319 -18q-144 1 -216.5 75.5t-72.5 184.5q0 107 71.5 183t217.5 76h10q146 0 217.5 -76t71.5 -183t-71.5 -183t-217.5 -76l-10 -1v0zM324 108q41 1 62 22t30 46q8 22 9.5 40.5t1.5 25.5q0 56 -26 93.5t-77 39.5q-52 -2 -77.5 -39.5t-25.5 -93.5q0 -7 1.5 -25.5t9.5 -40.5
q9 -24 30 -45t62 -23v0z" />
    <glyph glyph-name="percent" unicode="&#x43e;" horiz-adv-x="648" 
d="M319 -18q-144 1 -216.5 75.5t-72.5 184.5q0 107 71.5 183t217.5 76h10q146 0 217.5 -76t71.5 -183t-71.5 -183t-217.5 -76l-10 -1v0zM324 108q41 1 62 22t30 46q8 22 9.5 40.5t1.5 25.5q0 56 -26 93.5t-77 39.5q-52 -2 -77.5 -39.5t-25.5 -93.5q0 -7 1.5 -25.5t9.5 -40.5
q9 -24 30 -45t62 -23v0z" />
    <glyph glyph-name="C" unicode="&#xef;" 
d="M66 483h504v-483h-10h-175v363h-144v-363h-10h-175v483h10v0z" />
    <glyph glyph-name="C" unicode="&#x43f;" 
d="M66 483h504v-483h-10h-175v363h-144v-363h-10h-175v483h10v0z" />
    <glyph glyph-name="eth" unicode="&#xf0;" horiz-adv-x="648" 
d="M234 483v-47q31 34 66 49.5t83 15.5h10q104 0 164.5 -73t60.5 -186q0 -103 -59 -181t-166 -78l-10 -1q-40 1 -75 13.5t-67 43.5v-249h-10h-175v693h10h168v0zM327 126q43 2 71.5 32.5t28.5 83.5q0 52 -28 83t-72 32q-43 -2 -64.5 -24.5t-29.5 -49.5q-3 -11 -4.5 -21.5
t-1.5 -19.5t1.5 -19.5t4.5 -20.5q7 -28 29 -51t65 -25v0z" />
    <glyph glyph-name="eth" unicode="&#x440;" horiz-adv-x="648" 
d="M234 483v-47q31 34 66 49.5t83 15.5h10q104 0 164.5 -73t60.5 -186q0 -103 -59 -181t-166 -78l-10 -1q-40 1 -75 13.5t-67 43.5v-249h-10h-175v693h10h168v0zM327 126q43 2 71.5 32.5t28.5 83.5q0 52 -28 83t-72 32q-43 -2 -64.5 -24.5t-29.5 -49.5q-3 -11 -4.5 -21.5
t-1.5 -19.5t1.5 -19.5t4.5 -20.5q7 -28 29 -51t65 -25v0z" />
    <glyph glyph-name="quotedblleft" unicode="&#xf1;" horiz-adv-x="469" 
d="M439 172v-153q-3 -1 -14.5 -6.5t-30.5 -11.5q-21 -6 -48.5 -12t-59.5 -6l-10 -1q-123 1 -184.5 79.5t-61.5 180.5q0 106 63.5 182.5t182.5 76.5h10q18 0 34.5 -2t33.5 -5q20 -5 41 -12.5t44 -18.5v-152h-10q-24 23 -52.5 36t-57.5 14q-50 -2 -74 -37.5t-24 -82.5
q0 -49 27 -82t78 -35q20 1 46 10.5t57 37.5h10v0z" />
    <glyph glyph-name="quotedblleft" unicode="&#x441;" horiz-adv-x="469" 
d="M439 172v-153q-3 -1 -14.5 -6.5t-30.5 -11.5q-21 -6 -48.5 -12t-59.5 -6l-10 -1q-123 1 -184.5 79.5t-61.5 180.5q0 106 63.5 182.5t182.5 76.5h10q18 0 34.5 -2t33.5 -5q20 -5 41 -12.5t44 -18.5v-152h-10q-24 23 -52.5 36t-57.5 14q-50 -2 -74 -37.5t-24 -82.5
q0 -49 27 -82t78 -35q20 1 46 10.5t57 37.5h10v0z" />
    <glyph glyph-name="two" unicode="&#xf2;" horiz-adv-x="451" 
d="M133 0v357h-126v126h10h427v-126h-126v-357h-10h-175v0z" />
    <glyph glyph-name="two" unicode="&#x442;" horiz-adv-x="451" 
d="M133 0v357h-126v126h10h427v-126h-126v-357h-10h-175v0z" />
    <glyph glyph-name="three" unicode="&#xf3;" horiz-adv-x="618" 
d="M-1 483h203l128 -248l108 248h10h181l-350 -693h-10h-189l147 280l-238 413h10v0z" />
    <glyph glyph-name="three" unicode="&#x443;" horiz-adv-x="618" 
d="M-1 483h203l128 -248l108 248h10h181l-350 -693h-10h-189l147 280l-238 413h10v0z" />
    <glyph glyph-name="ocircumflex" unicode="&#xf4;" horiz-adv-x="797" 
d="M306 -210v203q-22 1 -55 4t-69 16q-57 20 -104.5 72t-47.5 157t47.5 156.5t104.5 72.5q36 12 69 15.5t55 3.5v210h10h175v-210q22 0 55 -3.5t69 -15.5q57 -21 104.5 -72.5t47.5 -156.5q0 -118 -61.5 -172.5t-135.5 -69.5q-20 -3 -40 -4.5t-39 -1.5v-204h-10h-175v0z
M317 104v268q-45 -4 -77 -38t-32 -96t32 -96t77 -38v0zM480 372v-268q49 3 79 40t30 94q0 56 -30 93.5t-79 40.5v0z" />
    <glyph glyph-name="ocircumflex" unicode="&#x444;" horiz-adv-x="797" 
d="M306 -210v203q-22 1 -55 4t-69 16q-57 20 -104.5 72t-47.5 157t47.5 156.5t104.5 72.5q36 12 69 15.5t55 3.5v210h10h175v-210q22 0 55 -3.5t69 -15.5q57 -21 104.5 -72.5t47.5 -156.5q0 -118 -61.5 -172.5t-135.5 -69.5q-20 -3 -40 -4.5t-39 -1.5v-204h-10h-175v0z
M317 104v268q-45 -4 -77 -38t-32 -96t32 -96t77 -38v0zM480 372v-268q49 3 79 40t30 94q0 56 -30 93.5t-79 40.5v0z" />
    <glyph glyph-name="otilde" unicode="&#xf5;" horiz-adv-x="612" 
d="M-7 0l212 258l-177 225h10h214l72 -121l74 121h10h204l-182 -227l189 -256h-10h-203l-93 150l-98 -150h-10h-212v0z" />
    <glyph glyph-name="otilde" unicode="&#x445;" horiz-adv-x="612" 
d="M-7 0l212 258l-177 225h10h214l72 -121l74 121h10h204l-182 -227l189 -256h-10h-203l-93 150l-98 -150h-10h-212v0z" />
    <glyph glyph-name="odieresis" unicode="&#xf6;" horiz-adv-x="647" 
d="M56 0v483h10h175v-363h137v363h10h175v-363h70v-260h-10h-154v140h-413v0z" />
    <glyph glyph-name="odieresis" unicode="&#x446;" horiz-adv-x="647" 
d="M56 0v483h10h175v-363h137v363h10h175v-363h70v-260h-10h-154v140h-413v0z" />
    <glyph glyph-name="divide" unicode="&#xf7;" horiz-adv-x="577" 
d="M336 0v156l-18 -2t-19 -2q-19 -1 -36.5 -1.5t-31.5 -0.5h-10q-90 0 -134.5 33.5t-44.5 107.5v192h10h168v-153q0 -35 15.5 -46.5t34.5 -13.5h5.5h5.5q12 0 25 1.5t30 5.5v206h10h175v-483h-10h-175v0z" />
    <glyph glyph-name="divide" unicode="&#x447;" horiz-adv-x="577" 
d="M336 0v156l-18 -2t-19 -2q-19 -1 -36.5 -1.5t-31.5 -0.5h-10q-90 0 -134.5 33.5t-44.5 107.5v192h10h168v-153q0 -35 15.5 -46.5t34.5 -13.5h5.5h5.5q12 0 25 1.5t30 5.5v206h10h175v-483h-10h-175v0z" />
    <glyph glyph-name="oslash" unicode="&#xf8;" horiz-adv-x="923" 
d="M56 0v483h10h175v-363h128v363h10h175v-363h128v363h10h175v-483h-10h-801v0z" />
    <glyph glyph-name="oslash" unicode="&#x448;" horiz-adv-x="923" 
d="M56 0v483h10h175v-363h128v363h10h175v-363h128v363h10h175v-483h-10h-801v0z" />
    <glyph glyph-name="question" unicode="&#xf9;" horiz-adv-x="951" 
d="M56 0v483h10h175v-363h128v363h10h175v-363h128v363h10h175v-363h70v-260h-10h-154v140h-717v0z" />
    <glyph glyph-name="question" unicode="&#x449;" horiz-adv-x="951" 
d="M56 0v483h10h175v-363h128v363h10h175v-363h128v363h10h175v-363h70v-260h-10h-154v140h-717v0z" />
    <glyph glyph-name="A" unicode="&#xfa;" horiz-adv-x="616" 
d="M311 322h106q78 0 115.5 -34t50.5 -74q4 -15 6 -29t2 -27q0 -69 -48 -113.5t-126 -44.5h-10h-281v357h-119v126h10h294v-161v0zM311 112h48q24 0 35.5 10t15.5 22q2 5 2.5 9.5t0.5 8.5q0 24 -16.5 36t-37.5 12h-48v-98v0z" />
    <glyph glyph-name="A" unicode="&#x44a;" horiz-adv-x="616" 
d="M311 322h106q78 0 115.5 -34t50.5 -74q4 -15 6 -29t2 -27q0 -69 -48 -113.5t-126 -44.5h-10h-281v357h-119v126h10h294v-161v0zM311 112h48q24 0 35.5 10t15.5 22q2 5 2.5 9.5t0.5 8.5q0 24 -16.5 36t-37.5 12h-48v-98v0z" />
    <glyph glyph-name="slash" unicode="&#xfb;" horiz-adv-x="797" 
d="M241 322h106q78 0 115.5 -34t50.5 -74q4 -15 6 -29t2 -27q0 -69 -48 -113.5t-126 -44.5h-10h-281v483h10h175v-161v0zM241 112h48q24 0 35.5 10t15.5 22q2 5 2.5 9.5t0.5 8.5q0 24 -16.5 36t-37.5 12h-48v-98v0zM556 0v483h10h175v-483h-10h-175v0z" />
    <glyph glyph-name="slash" unicode="&#x44b;" horiz-adv-x="797" 
d="M241 322h106q78 0 115.5 -34t50.5 -74q4 -15 6 -29t2 -27q0 -69 -48 -113.5t-126 -44.5h-10h-281v483h10h175v-161v0zM241 112h48q24 0 35.5 10t15.5 22q2 5 2.5 9.5t0.5 8.5q0 24 -16.5 36t-37.5 12h-48v-98v0zM556 0v483h10h175v-483h-10h-175v0z" />
    <glyph glyph-name="udieresis" unicode="&#xfc;" horiz-adv-x="546" 
d="M241 322h106q78 0 115.5 -34t50.5 -74q4 -15 6 -29t2 -27q0 -69 -48 -113.5t-126 -44.5h-10h-281v483h10h175v-161v0zM241 112h48q24 0 35.5 10t15.5 22q2 5 2.5 9.5t0.5 8.5q0 24 -16.5 36t-37.5 12h-48v-98v0z" />
    <glyph glyph-name="udieresis" unicode="&#x44c;" horiz-adv-x="546" 
d="M241 322h106q78 0 115.5 -34t50.5 -74q4 -15 6 -29t2 -27q0 -69 -48 -113.5t-126 -44.5h-10h-281v483h10h175v-161v0zM241 112h48q24 0 35.5 10t15.5 22q2 5 2.5 9.5t0.5 8.5q0 24 -16.5 36t-37.5 12h-48v-98v0z" />
    <glyph glyph-name="period" unicode="&#xfd;" horiz-adv-x="502" 
d="M42 7v140h10q38 -28 72 -37t61 -10q56 2 87.5 28.5t35.5 64.5h-203v105h199q-8 43 -43 66.5t-79 24.5q-31 -1 -57.5 -11.5t-45.5 -23.5q-7 -4 -13 -8.5t-11 -8.5h-10v133q4 2 8.5 3.5t8.5 3.5q34 13 67.5 18.5t62.5 5.5h10q127 0 198.5 -76t71.5 -180q0 -106 -69.5 -185
t-200.5 -79l-10 -1q-39 1 -68 6t-49 10q-11 4 -19.5 6.5t-13.5 4.5v0z" />
    <glyph glyph-name="period" unicode="&#x44d;" horiz-adv-x="502" 
d="M42 7v140h10q38 -28 72 -37t61 -10q56 2 87.5 28.5t35.5 64.5h-203v105h199q-8 43 -43 66.5t-79 24.5q-31 -1 -57.5 -11.5t-45.5 -23.5q-7 -4 -13 -8.5t-11 -8.5h-10v133q4 2 8.5 3.5t8.5 3.5q34 13 67.5 18.5t62.5 5.5h10q127 0 198.5 -76t71.5 -180q0 -106 -69.5 -185
t-200.5 -79l-10 -1q-39 1 -68 6t-49 10q-11 4 -19.5 6.5t-13.5 4.5v0z" />
    <glyph glyph-name="thorn" unicode="&#xfe;" horiz-adv-x="894" 
d="M241 193v-193h-10h-175v483h10h175v-178h45q3 13 7.5 27t11.5 28q26 53 86.5 97t175.5 44h10q146 0 216.5 -76.5t70.5 -182.5q0 -107 -70.5 -183t-218.5 -76l-10 -1q-124 1 -186.5 52.5t-83.5 113.5q-4 12 -6.5 23t-4.5 22h-43v0zM572 108q51 2 76 39.5t25 94.5
q0 56 -24.5 93.5t-76.5 39.5q-52 -2 -76.5 -39.5t-24.5 -93.5q0 -57 25 -94.5t76 -39.5v0z" />
    <glyph glyph-name="thorn" unicode="&#x44e;" horiz-adv-x="894" 
d="M241 193v-193h-10h-175v483h10h175v-178h45q3 13 7.5 27t11.5 28q26 53 86.5 97t175.5 44h10q146 0 216.5 -76.5t70.5 -182.5q0 -107 -70.5 -183t-218.5 -76l-10 -1q-124 1 -186.5 52.5t-83.5 113.5q-4 12 -6.5 23t-4.5 22h-43v0zM572 108q51 2 76 39.5t25 94.5
q0 56 -24.5 93.5t-76.5 39.5q-52 -2 -76.5 -39.5t-24.5 -93.5q0 -57 25 -94.5t76 -39.5v0z" />
    <glyph glyph-name="ydieresis" unicode="&#xff;" horiz-adv-x="563" 
d="M28 0l126 168q-54 8 -88 49.5t-34 107.5q0 76 49.5 117t135.5 41h10h280v-483h-10h-175v154h-4l-98 -154h-10h-182v0zM322 259v112h-49q-5 0 -12.5 -0.5t-15.5 -3.5q-13 -4 -24 -16t-11 -37q0 -30 17 -42.5t46 -12.5h49v0z" />
    <glyph glyph-name="ydieresis" unicode="&#x44f;" horiz-adv-x="563" 
d="M28 0l126 168q-54 8 -88 49.5t-34 107.5q0 76 49.5 117t135.5 41h10h280v-483h-10h-175v154h-4l-98 -154h-10h-182v0zM322 259v112h-49q-5 0 -12.5 -0.5t-15.5 -3.5q-13 -4 -24 -16t-11 -37q0 -30 17 -42.5t46 -12.5h49v0z" />
    <glyph glyph-name="amacron" unicode="&#x101;" 
 />
    <glyph glyph-name="OE" unicode="&#x152;" horiz-adv-x="1109" 
d="M63 0v700h10h196v-273h228v273h10h196v-273h103q21 0 55 -2t71 -13q56 -16 102.5 -60t46.5 -138t-46.5 -138.5t-101.5 -60.5q-37 -11 -72 -13t-55 -2h-10h-299v287h-228v-287h-10h-196v0zM703 140h74q44 0 71 15.5t27 58.5q0 42 -26.5 57.5t-71.5 15.5h-74v-147v0z" />
    <glyph glyph-name="glyph258" unicode="&#x153;" horiz-adv-x="882" 
d="M56 0v483h10h175v-161h151v161h10h175v-161h106q78 0 115.5 -34t50.5 -74q4 -15 6 -29t2 -27q0 -69 -48 -113.5t-126 -44.5h-10h-281v202h-151v-202h-10h-175v0zM577 112h48q24 0 35.5 10t15.5 22q2 5 2.5 9.5t0.5 8.5q0 24 -16.5 36t-37.5 12h-48v-98v0z" />
    <glyph glyph-name="perthousand" unicode="&#x160;" horiz-adv-x="1088" 
d="M150 700h532v-273h103q21 0 55 -2t71 -13q56 -16 102.5 -60t46.5 -138t-46.5 -138.5t-101.5 -60.5q-37 -11 -72 -13t-55 -2h-10h-299v532h-130v-276q0 -22 -1.5 -48t-7.5 -53q-13 -62 -64.5 -112.5t-180.5 -50.5l-10 -1q-16 1 -28.5 1.5t-24.5 2.5q-7 1 -14 2.5t-15 2.5
v168h10q10 -3 19.5 -4.5t19.5 -2.5q65 2 78 46.5t13 106.5v386h10v0zM682 140h74q44 0 71 15.5t27 58.5q0 42 -26.5 57.5t-71.5 15.5h-74v-147v0z" />
    <glyph glyph-name="eight" unicode="&#x161;" horiz-adv-x="882" 
d="M577 483v-161h106q78 0 115.5 -34t50.5 -74q4 -15 6 -29t2 -27q0 -69 -48 -113.5t-126 -44.5h-10h-281v363h-102v-202q0 -14 -1.5 -32t-6.5 -37q-11 -38 -46.5 -70t-119.5 -32l-10 -1q-10 1 -23 2t-26 3q-8 1 -15.5 2.5t-15.5 2.5q-3 0 -6 0.5t-6 0.5v126h10q4 -1 8.5 -2
t9.5 -2q2 0 4.5 -0.5t4.5 -0.5q23 2 42 19.5t19 66.5v276h10h455v0zM577 112h48q24 0 35.5 10t15.5 22q2 5 2.5 9.5t0.5 8.5q0 24 -16.5 36t-37.5 12h-48v-98v0z" />
    <glyph glyph-name="greater" unicode="&#x192;" horiz-adv-x="409" 
d="M56 0v483h10h336v-126h-161v-357h-10h-175v0z" />
    <glyph glyph-name="glyph237" unicode="&#x2c6;" horiz-adv-x="10" 
 />
    <glyph glyph-name="seven" unicode="&#x2dc;" horiz-adv-x="10" 
 />
    <glyph glyph-name="dollar" unicode="&#x2013;" horiz-adv-x="650" 
d="M50 300v100h10h540v-100h-10h-540v0z" />
    <glyph glyph-name="numbersign" unicode="&#x2014;" horiz-adv-x="834" 
d="M42 323h760v-100h-10h-760v100h10v0z" />
    <glyph glyph-name="four" unicode="&#x2018;" horiz-adv-x="346" 
d="M318 700l-105 -308h-10h-175l147 308h10h133v0z" />
    <glyph glyph-name="quoteright" unicode="&#x2019;" horiz-adv-x="346" 
d="M28 392l105 308h10h175l-147 -308h-10h-133v0z" />
    <glyph glyph-name="parenleft" unicode="&#x201a;" horiz-adv-x="332" 
d="M14 -140l105 308h10h175l-147 -308h-10h-133v0z" />
    <glyph glyph-name="oe" unicode="&#x201c;" horiz-adv-x="577" 
d="M318 700l-105 -308h-10h-175l147 308h10h133v0zM549 700l-105 -308h-10h-175l147 308h10h133v0z" />
    <glyph glyph-name="B" unicode="&#x201d;" horiz-adv-x="577" 
d="M28 392l105 308h10h175l-147 -308h-10h-133v0zM259 392l105 308h10h175l-147 -308h-10h-133v0z" />
    <glyph glyph-name="quotedblbase" unicode="&#x201e;" horiz-adv-x="577" 
d="M28 -140l105 308h10h175l-147 -308h-10h-133v0zM259 -140l105 308h10h175l-147 -308h-10h-133v0z" />
    <glyph glyph-name="glyph233" unicode="&#x2020;" horiz-adv-x="598" 
d="M203 -210v560h-175v161h175v224h10h182v-224h175v-161h-175v-560h-10h-182v0z" />
    <glyph glyph-name="glyph236" unicode="&#x2021;" horiz-adv-x="682" 
d="M135 392q-16 28 -23 56.5t-7 59.5q0 83 65.5 147.5t192.5 64.5h10q118 0 175 -44.5t78 -97.5q10 -26 13.5 -50.5t3.5 -44.5h-10h-181q1 5 1 10v9q0 37 -20 54.5t-44 21.5q-3 1 -7 1.5t-8 0.5q-34 -1 -55.5 -23.5t-21.5 -60.5q0 -17 3 -32t7 -27q2 -8 4.5 -14.5t3.5 -9.5
t2 -5l2 -4q0 -1 0.5 -1.5t0.5 -1.5q1 -2 1.5 -4t1.5 -5h142v-91h-120q2 -12 3.5 -24t1.5 -24q0 -24 -5 -48t-15 -47q42 -13 63.5 -18.5t35.5 -6.5q21 1 32 12.5t14 25.5q0 3 0.5 5.5t0.5 5.5h10h168q-27 -124 -76.5 -162.5t-103.5 -38.5l-10 -1q-5 1 -10.5 1t-11.5 1
q-25 2 -49 7t-44 11l-12 4l-12 4q-19 7 -38.5 13t-39.5 7q-3 0 -5.5 -0.5t-5.5 -0.5q-9 -2 -17 -8t-13 -19h-10h-175q4 83 49.5 129t109.5 46h2h2h1h2q4 8 7 19t3 26q-1 16 -5.5 36t-18.5 45h-138v91h100v0z" />
    <glyph glyph-name="glyph257" unicode="&#x2022;" horiz-adv-x="470" 
d="M50 350q0 76 53.5 128t126.5 52h10q74 0 127 -52t53 -128t-53 -128t-127 -52h-10q-73 0 -126.5 52t-53.5 128v0z" />
    <glyph glyph-name="glyph232" unicode="&#x2026;" horiz-adv-x="1000" 
d="M63 84q0 43 30.5 72.5t71.5 29.5h10q41 0 71.5 -29.5t30.5 -72.5t-30.5 -72t-71.5 -29l-10 -1q-41 1 -71.5 30t-30.5 72v0zM393 84q0 43 30.5 72.5t71.5 29.5h10q43 0 72.5 -30.5t29.5 -71.5t-29.5 -71t-72.5 -30l-10 -1q-41 1 -71.5 30t-30.5 72v0zM723 84
q0 41 29.5 71.5t72.5 30.5h10q41 0 71.5 -29.5t30.5 -72.5t-30.5 -72t-71.5 -29l-10 -1q-43 1 -72.5 31t-29.5 71v0z" />
    <glyph glyph-name="v" unicode="&#x2030;" horiz-adv-x="1320" 
d="M168 -20l455 740h10h91l-455 -740h-10h-91v0zM477 172q0 78 56 135t136 57h10q80 0 136 -57t56 -135t-56 -134.5t-136 -56.5l-10 -1q-78 1 -135 56.5t-57 135.5v0zM602 172q0 -4 0.5 -8.5t1.5 -9.5q6 -21 23.5 -39t46.5 -20q31 2 51.5 24t20.5 53t-18.5 50t-40.5 25
q-3 0 -6.5 1t-6.5 1q-30 -2 -51 -25t-21 -52v0zM905 172q0 78 56 135t136 57h10q80 0 136 -57t56 -135t-56 -134.5t-136 -56.5l-10 -1q-80 1 -136 57.5t-56 134.5v0zM1030 172q0 -4 0.5 -8.5t1.5 -9.5q6 -21 23.5 -39t46.5 -20q31 2 51.5 24t20.5 53t-18.5 50t-40.5 25
q-3 0 -6.5 1t-6.5 1q-30 -2 -51 -25t-21 -52v0zM21 528q0 78 56 135t136 57h10q80 0 136 -57t56 -135t-56 -135t-136 -57h-10q-80 0 -136 57t-56 135v0zM146 528q0 -4 0.5 -8.5t1.5 -9.5q6 -21 23.5 -39t46.5 -20q31 2 51.5 24t20.5 53t-18.5 50t-40.5 25q-3 0 -6.5 1
t-6.5 1q-30 -2 -51 -25t-21 -52v0z" />
    <glyph glyph-name="glyph243" unicode="&#x2039;" horiz-adv-x="332" 
d="M198 21l-170 231l170 231h10l96 -59l-126 -172l126 -171l-96 -60h-10v0z" />
    <glyph glyph-name="less" unicode="&#x203a;" horiz-adv-x="332" 
d="M133 483l171 -231l-171 -231h-10l-95 60l126 171l-126 172l95 59h10v0z" />
    <glyph glyph-name="six" unicode="&#x2122;" horiz-adv-x="802" 
d="M120 420v190h-70v90h10h260v-90h-70v-190h-10h-120v0zM536 567l36 133h10h126l44 -280h-10h-102l-20 129l-37 -129h-10h-84l-37 129l-20 -129h-10h-102l44 280h10h126l36 -133v0z" />
    <glyph glyph-name="periodcentered" unicode="&#x2219;" horiz-adv-x="340" 
d="M63 273q0 43 30.5 72.5t71.5 29.5h10q41 0 71.5 -29.5t30.5 -72.5t-30.5 -72.5t-71.5 -29.5h-10q-41 0 -71.5 29.5t-30.5 72.5v0z" />
    <glyph glyph-name="s" 
 />
    <glyph glyph-name="backslash" 
 />
    <glyph glyph-name="nine" 
 />
    <glyph glyph-name="colon" 
 />
    <glyph glyph-name="Y" 
 />
    <glyph glyph-name="X" 
 />
    <glyph glyph-name="asciicircum" 
 />
    <glyph glyph-name="semicolon" 
 />
    <glyph glyph-name="equal" 
 />
    <glyph glyph-name="exclam" 
 />
    <glyph glyph-name="five" 
 />
    <glyph glyph-name="Q" 
 />
    <glyph glyph-name="quotedblright" 
 />
    <glyph glyph-name="hyphen" 
 />
    <glyph glyph-name="space" 
 />
    <glyph glyph-name="E" 
 />
    <glyph glyph-name="M" 
 />
    <glyph glyph-name="plus" 
 />
    <glyph glyph-name="glyph229" 
 />
    <glyph glyph-name="glyph230" 
 />
    <glyph glyph-name="glyph231" 
 />
    <glyph glyph-name="glyph234" 
 />
    <glyph glyph-name="glyph235" 
 />
    <glyph glyph-name="glyph238" 
 />
    <glyph glyph-name="glyph239" 
 />
    <glyph glyph-name="glyph240" 
 />
    <glyph glyph-name="glyph241" 
 />
    <glyph glyph-name="glyph242" 
 />
    <glyph glyph-name="glyph244" 
 />
    <glyph glyph-name="glyph245" 
 />
    <glyph glyph-name="glyph246" 
 />
    <glyph glyph-name="glyph247" 
 />
    <glyph glyph-name="glyph248" 
 />
    <glyph glyph-name="glyph249" 
 />
    <glyph glyph-name="glyph250" 
 />
    <glyph glyph-name="glyph251" 
 />
    <glyph glyph-name="glyph252" 
 />
    <glyph glyph-name="glyph253" 
 />
    <glyph glyph-name="glyph254" 
 />
    <glyph glyph-name="glyph255" 
 />
    <glyph glyph-name="glyph256" 
 />
    <glyph glyph-name="glyph267" 
 />
    <glyph glyph-name="glyph268" 
 />
    <glyph glyph-name="glyph269" 
 />
    <glyph glyph-name="glyph270" 
 />
    <glyph glyph-name="glyph271" 
 />
    <glyph glyph-name="glyph272" 
 />
    <glyph glyph-name="glyph273" 
 />
    <glyph glyph-name="glyph274" 
 />
    <glyph glyph-name="glyph275" 
 />
    <glyph glyph-name="glyph276" 
 />
    <glyph glyph-name="glyph277" 
 />
    <glyph glyph-name="glyph278" 
 />
    <glyph glyph-name="glyph279" 
 />
    <glyph glyph-name="glyph280" 
 />
    <glyph glyph-name="glyph281" 
 />
    <glyph glyph-name="glyph282" 
 />
    <glyph glyph-name="glyph283" 
 />
    <glyph glyph-name="glyph284" 
 />
    <glyph glyph-name="glyph285" 
 />
    <glyph glyph-name="glyph286" 
 />
    <glyph glyph-name="glyph287" 
 />
    <glyph glyph-name="glyph288" 
 />
    <glyph glyph-name="glyph289" 
 />
    <glyph glyph-name="glyph290" 
 />
    <glyph glyph-name="glyph291" 
 />
    <glyph glyph-name="glyph292" 
 />
    <glyph glyph-name="glyph293" 
 />
    <glyph glyph-name="glyph294" 
 />
    <glyph glyph-name="glyph295" 
 />
    <glyph glyph-name="glyph296" 
 />
    <glyph glyph-name="glyph297" 
 />
    <glyph glyph-name="glyph298" 
 />
    <glyph glyph-name="glyph299" 
 />
    <glyph glyph-name="glyph300" 
 />
    <glyph glyph-name="glyph301" 
 />
    <glyph glyph-name="glyph302" 
 />
    <glyph glyph-name="glyph303" 
 />
    <glyph glyph-name="glyph304" 
 />
    <glyph glyph-name="glyph305" 
 />
    <glyph glyph-name="glyph306" 
 />
    <glyph glyph-name="glyph307" 
 />
    <glyph glyph-name="glyph308" 
 />
    <glyph glyph-name="glyph309" 
 />
    <glyph glyph-name="glyph310" 
 />
    <glyph glyph-name="glyph311" 
 />
    <glyph glyph-name="glyph312" 
 />
    <glyph glyph-name="glyph313" 
 />
    <glyph glyph-name="glyph314" 
 />
    <glyph glyph-name="glyph315" 
 />
    <glyph glyph-name="glyph316" 
 />
    <glyph glyph-name="glyph317" 
 />
    <glyph glyph-name="glyph318" 
 />
    <glyph glyph-name="glyph319" 
 />
    <glyph glyph-name="glyph320" 
 />
    <glyph glyph-name="glyph321" 
 />
    <glyph glyph-name="glyph322" 
 />
    <glyph glyph-name="glyph323" 
 />
    <glyph glyph-name="glyph324" 
 />
    <glyph glyph-name="glyph325" 
 />
    <glyph glyph-name="glyph326" 
 />
    <glyph glyph-name="glyph327" 
 />
    <glyph glyph-name="glyph328" 
 />
    <glyph glyph-name="glyph329" 
 />
    <glyph glyph-name="glyph330" 
 />
    <glyph glyph-name="glyph331" 
 />
    <glyph glyph-name="glyph332" 
 />
    <glyph glyph-name="glyph333" 
 />
    <glyph glyph-name="glyph334" 
 />
    <glyph glyph-name="glyph335" 
 />
    <glyph glyph-name="glyph336" 
 />
    <glyph glyph-name="glyph337" 
 />
    <glyph glyph-name="glyph338" 
 />
    <glyph glyph-name="glyph339" 
 />
    <glyph glyph-name="glyph340" 
 />
    <glyph glyph-name="glyph341" 
 />
    <glyph glyph-name="glyph342" 
 />
    <glyph glyph-name="glyph343" 
 />
    <glyph glyph-name="glyph344" 
 />
    <glyph glyph-name="glyph345" 
 />
    <glyph glyph-name="glyph346" 
 />
    <glyph glyph-name="glyph347" 
 />
    <glyph glyph-name="glyph348" 
 />
    <glyph glyph-name="glyph349" 
 />
    <glyph glyph-name="glyph350" 
 />
    <glyph glyph-name="glyph351" 
 />
    <glyph glyph-name="glyph352" 
 />
    <glyph glyph-name="glyph353" 
 />
    <glyph glyph-name="glyph354" 
 />
    <glyph glyph-name="glyph355" 
 />
    <glyph glyph-name="glyph356" 
 />
    <glyph glyph-name="glyph357" 
 />
    <glyph glyph-name="glyph358" 
 />
    <glyph glyph-name="glyph359" 
 />
    <glyph glyph-name="glyph360" 
 />
    <glyph glyph-name="glyph361" 
 />
    <glyph glyph-name="glyph362" 
 />
    <glyph glyph-name="glyph363" 
 />
    <glyph glyph-name="glyph364" 
 />
    <glyph glyph-name="glyph365" 
 />
    <glyph glyph-name="glyph366" 
 />
    <glyph glyph-name="glyph367" 
 />
    <glyph glyph-name="glyph368" 
 />
    <glyph glyph-name="glyph369" 
 />
    <glyph glyph-name="glyph370" 
 />
    <glyph glyph-name="glyph371" 
 />
    <glyph glyph-name="glyph372" 
 />
    <glyph glyph-name="glyph373" 
 />
    <glyph glyph-name="glyph374" 
 />
    <glyph glyph-name="glyph375" 
 />
    <glyph glyph-name="glyph376" 
 />
    <glyph glyph-name="glyph377" 
 />
    <glyph glyph-name="glyph378" 
 />
    <glyph glyph-name="glyph379" 
 />
    <glyph glyph-name="glyph380" 
 />
    <glyph glyph-name="glyph381" 
 />
    <glyph glyph-name="glyph382" 
 />
    <glyph glyph-name="glyph383" 
 />
    <glyph glyph-name="glyph384" 
 />
    <glyph glyph-name="glyph385" 
 />
    <glyph glyph-name="glyph386" 
 />
    <glyph glyph-name="glyph387" 
 />
    <glyph glyph-name="glyph388" 
 />
    <glyph glyph-name="glyph389" 
 />
    <glyph glyph-name="glyph390" 
 />
    <glyph glyph-name="glyph391" 
 />
    <glyph glyph-name="glyph392" 
 />
    <glyph glyph-name="glyph393" 
 />
    <glyph glyph-name="glyph394" 
 />
    <glyph glyph-name="glyph395" 
 />
    <glyph glyph-name="glyph396" 
 />
    <glyph glyph-name="glyph397" 
 />
    <glyph glyph-name="glyph398" 
 />
    <glyph glyph-name="glyph399" 
 />
    <glyph glyph-name="glyph400" 
 />
    <glyph glyph-name="glyph401" 
 />
    <glyph glyph-name="glyph402" 
 />
    <glyph glyph-name="glyph403" 
 />
    <glyph glyph-name="glyph404" 
 />
    <glyph glyph-name="glyph405" 
 />
    <glyph glyph-name="glyph406" 
 />
    <glyph glyph-name="glyph407" 
 />
    <glyph glyph-name="glyph408" 
 />
    <glyph glyph-name="glyph409" 
 />
    <glyph glyph-name="glyph410" 
 />
    <glyph glyph-name="glyph411" 
 />
    <glyph glyph-name="glyph412" 
 />
    <glyph glyph-name="glyph413" 
 />
    <glyph glyph-name="glyph414" 
 />
    <glyph glyph-name="glyph415" 
 />
    <glyph glyph-name="glyph416" 
 />
    <glyph glyph-name="glyph417" 
 />
    <glyph glyph-name="glyph418" 
 />
    <glyph glyph-name="glyph419" 
 />
    <glyph glyph-name="glyph420" 
 />
    <glyph glyph-name="glyph421" 
 />
    <glyph glyph-name="glyph422" 
 />
    <glyph glyph-name="glyph423" 
 />
    <glyph glyph-name="glyph424" 
 />
    <glyph glyph-name="glyph425" 
 />
    <glyph glyph-name="glyph426" 
 />
    <glyph glyph-name="glyph427" 
 />
    <glyph glyph-name="glyph428" 
 />
    <glyph glyph-name="glyph429" 
 />
    <glyph glyph-name="glyph430" 
 />
    <glyph glyph-name="glyph431" 
 />
    <glyph glyph-name="glyph432" 
 />
    <glyph glyph-name="glyph433" 
 />
    <glyph glyph-name="glyph434" 
 />
    <glyph glyph-name="glyph435" 
 />
    <glyph glyph-name="glyph436" 
 />
    <glyph glyph-name="glyph437" 
 />
    <glyph glyph-name="glyph438" 
 />
    <glyph glyph-name="glyph439" 
 />
    <glyph glyph-name="glyph440" 
 />
    <glyph glyph-name="glyph441" 
 />
  </font>
</defs>
</svg>
